<?xml version="1.0" encoding="utf-8"?>
<!-- Generator: Adobe Illustrator 16.0.0, SVG Export Plug-In . SVG Version: 6.00 Build 0)  -->
<!DOCTYPE svg PUBLIC "-//W3C//DTD SVG 1.1//EN" "http://www.w3.org/Graphics/SVG/1.1/DTD/svg11.dtd">
<svg version="1.1" id="Layer_1" xmlns="http://www.w3.org/2000/svg" xmlns:xlink="http://www.w3.org/1999/xlink" x="0px" y="0px"
	 width="49.75px" height="48.957px" viewBox="0 0 49.75 48.957" enable-background="new 0 0 49.75 48.957" xml:space="preserve">
<g>
	<path opacity="0.8" enable-background="new    " d="M48.97,24.479c0,13.252-10.842,24.094-24.095,24.094
		c-13.252,0-24.094-10.842-24.094-24.094S11.623,0.384,24.875,0.384C38.128,0.384,48.97,11.227,48.97,24.479z"/>
</g>
<g>
	<g>
		<g>
			<circle fill="#8F55FF" cx="24.875" cy="24.479" r="21.25"/>
		</g>
		<g>
			<path fill="#FFFFFF" d="M31.3,32.622c-0.586-0.504-0.783-2.039-0.5-2.867c0.896-2.609,2.164-5.088,3.18-7.662
				c1.037-2.633-0.157-6.624-2.772-8.333c-3.282-2.146-6.685-2.114-10.137-0.964c-0.972,0.324-1.798,1.484-2.399,2.444
				c-1.406,2.261-0.926,5.335-3.061,7.345c-0.217,0.205-0.262,0.981-0.069,1.173c1.521,1.504,0.979,3.227,0.513,4.861
				c-0.354,1.229,0.115,1.877,1.145,2.146c0.771,0.201,1.65-0.02,2.424,0.18c0.553,0.141,1.154,0.564,1.463,1.037
				c0.487,0.754,0.786,1.637,1.092,2.49c0.301,0.841,0.916,1.859,0.676,2.543c-0.555,1.556-1.693,2.895-2.33,4.427
				c-0.484,1.159-0.936,2.327-1.377,3.501c1.824,0.507,3.744,0.786,5.732,0.786c4.533,0,8.735-1.426,12.186-3.845
				C36.153,38.435,34.41,35.29,31.3,32.622z"/>
		</g>
	</g>
</g>
</svg>
