<?xml version="1.0" encoding="utf-8"?>
<!-- Generator: Adobe Illustrator 16.0.0, SVG Export Plug-In . SVG Version: 6.00 Build 0)  -->
<!DOCTYPE svg PUBLIC "-//W3C//DTD SVG 1.1//EN" "http://www.w3.org/Graphics/SVG/1.1/DTD/svg11.dtd">
<svg version="1.1" id="Layer_1" xmlns="http://www.w3.org/2000/svg" xmlns:xlink="http://www.w3.org/1999/xlink" x="0px" y="0px"
	 width="47px" height="47px" viewBox="0 0 47 47" enable-background="new 0 0 47 47" xml:space="preserve">
<g>
	<g opacity="0.8" enable-background="new    ">
		<g>
			<g>
				<path d="M37.204,5.901c-7.57-7.567-19.841-7.567-27.408,0c-7.568,7.57-7.568,19.84,0,27.41l13.646,13.463l13.762-13.463
					C44.772,25.741,44.772,13.471,37.204,5.901z"/>
			</g>
		</g>
	</g>
	<g>
		<g>
			<g>
				<path fill="#8F55FF" d="M35.031,8.151c-6.41-6.407-16.802-6.407-23.209,0c-6.409,6.411-6.409,16.801,0,23.212l11.556,11.399
					l11.653-11.399C41.439,24.952,41.439,14.563,35.031,8.151z"/>
			</g>
		</g>
	</g>
	<g>
		<path fill="#FFFFFF" d="M19.925,21.95c0.13,0.133,0.617,0.197,0.799,0.197h1.736v4.012c0,0.18-0.467,0.141-0.337,0.275
			c0.002,0,0.002,0,0.002,0h2.173h0.45c0.002,0,0.002,0,0.002,0c0.13-0.135-0.452-0.096-0.452-0.275v-4.012h1.971
			c0.179,0,0.551-0.066,0.682-0.197c0.133-0.133,0.41-0.287,0.41-0.469v-4.01c0-0.369-0.345-1.048-0.607-1.308
			c-0.257-0.263-0.787-0.755-1.156-0.755h-0.594c0.09-0.084,0.184-0.182,0.296-0.293c0.455-0.453,0.735-1.006,0.735-1.654
			c0-0.646-0.129-1.199-0.587-1.655c-0.376-0.376-0.691-0.589-1.152-0.654v-0.02c0,0-0.011-0.001-0.026-0.001
			c-0.066-0.002-0.304-0.01-0.274-0.01c0.015,0,0.023,0.004,0.039,0.004c-0.112-0.002-0.223-0.004-0.238-0.004
			c-0.649,0-1.402,0.229-1.857,0.685s-0.783,1.009-0.783,1.654c0,0.647,0.177,1.2,0.635,1.655c0.111,0.111,0.252,0.209,0.408,0.293
			H21.39c-0.369,0-1.012,0.494-1.272,0.754c-0.262,0.261-0.722,0.939-0.722,1.309v4.01C19.398,21.663,19.792,21.818,19.925,21.95z"
			/>
		<path fill="#FFFFFF" d="M22.125,26.435h-0.066C21.88,26.435,22.251,26.565,22.125,26.435z"/>
		<path fill="#FFFFFF" d="M30.604,25.905c-0.229-0.279-0.547-0.51-0.948-0.697c-0.405-0.188-0.815-0.342-1.233-0.463
			c-0.417-0.125-0.873-0.227-1.369-0.307c-0.184-0.039-0.346,0-0.498,0.107c-0.156,0.105-0.246,0.252-0.275,0.434
			c-0.031,0.18,0.004,0.35,0.112,0.5c0.107,0.152,0.252,0.244,0.432,0.271c0.406,0.072,0.775,0.152,1.11,0.246
			c0.332,0.094,0.602,0.184,0.799,0.266c0.198,0.084,0.369,0.166,0.507,0.246c0.141,0.08,0.238,0.148,0.29,0.201
			c0.053,0.059,0.088,0.102,0.098,0.127c-0.021,0.076-0.104,0.168-0.271,0.277c-0.169,0.107-0.397,0.223-0.735,0.344
			c-0.342,0.123-0.688,0.234-1.142,0.34c-0.452,0.105-0.912,0.191-1.575,0.26c-0.65,0.068-1.147,0.104-1.862,0.105
			c-0.112,0-0.224,0-0.242,0c-0.736,0-1.64-0.033-2.304-0.105c-0.664-0.068-1.324-0.154-1.777-0.26
			c-0.449-0.102-0.9-0.217-1.238-0.34c-0.342-0.123-0.621-0.236-0.789-0.344c-0.166-0.109-0.272-0.201-0.293-0.277
			c0.006-0.025,0.027-0.068,0.082-0.127c0.051-0.055,0.145-0.121,0.285-0.201c0.139-0.078,0.305-0.162,0.504-0.246
			c0.199-0.082,0.463-0.172,0.797-0.266c0.337-0.094,0.703-0.174,1.105-0.246c0.183-0.027,0.327-0.119,0.436-0.271
			c0.106-0.15,0.144-0.32,0.109-0.5c-0.027-0.182-0.118-0.326-0.271-0.434c-0.152-0.107-0.319-0.146-0.502-0.107
			c-0.492,0.08-0.948,0.184-1.366,0.307c-0.419,0.121-0.829,0.273-1.233,0.463c-0.402,0.188-0.721,0.418-0.951,0.697
			c-0.229,0.273-0.343,0.582-0.343,0.922c0,0.438,0.212,0.834,0.642,1.184c0.428,0.355,0.998,0.635,1.712,0.848
			c0.715,0.215,1.499,0.373,2.351,0.482c0.853,0.105,2.138,0.162,3.048,0.162c0.034,0,0.503-0.004,0.503-0.004
			S23.967,29.503,24,29.503c0.913,0,1.395-0.055,2.246-0.162c0.853-0.109,1.635-0.268,2.349-0.482
			c0.717-0.213,1.284-0.492,1.713-0.848c0.428-0.35,0.643-0.746,0.643-1.184C30.946,26.487,30.832,26.179,30.604,25.905z"/>
		<path fill="#FFFFFF" d="M24.93,26.435h-0.179C24.627,26.565,25.113,26.435,24.93,26.435z"/>
	</g>
</g>
</svg>
