<?xml version="1.0" encoding="utf-8"?>
<!-- Generator: Adobe Illustrator 16.0.0, SVG Export Plug-In . SVG Version: 6.00 Build 0)  -->
<!DOCTYPE svg PUBLIC "-//W3C//DTD SVG 1.1//EN" "http://www.w3.org/Graphics/SVG/1.1/DTD/svg11.dtd">
<svg version="1.1" id="Layer_1" xmlns="http://www.w3.org/2000/svg" xmlns:xlink="http://www.w3.org/1999/xlink" x="0px" y="0px"
	 width="228px" height="76px" viewBox="0 0 228 76" enable-background="new 0 0 228 76" xml:space="preserve">
<g>
	<g>
		<path fill="#2E3192" d="M20.106,37.863h-5.062V14.456H6.12V10.22h22.891v4.235h-8.904V37.863z"/>
		<path fill="#2E3192" d="M36.361,16.108c0,1.033-0.018,1.883-0.052,2.551c-0.035,0.668-0.094,1.271-0.176,1.808h0.082
			c0.29-0.385,0.645-0.771,1.064-1.157s0.881-0.72,1.384-1.002s1.074-0.513,1.715-0.692c0.641-0.179,1.347-0.269,2.118-0.269
			c0.661,0,1.305,0.066,1.932,0.196c0.626,0.131,1.212,0.334,1.756,0.609c0.544,0.276,1.04,0.634,1.487,1.075
			s0.823,0.964,1.126,1.57c0.262,0.524,0.455,1.116,0.578,1.777c0.124,0.661,0.187,1.467,0.187,2.417v12.871h-4.896v-12.21
			c0-0.62-0.027-1.125-0.083-1.518c-0.055-0.393-0.151-0.733-0.289-1.023c-0.289-0.606-0.702-1.033-1.239-1.281
			s-1.15-0.372-1.839-0.372c-0.95,0.014-1.828,0.241-2.634,0.682c-0.806,0.441-1.547,1.088-2.221,1.942v13.78h-4.896V7.948h4.896
			V16.108z"/>
		<path fill="#2E3192" d="M64.186,34.434c0.95,0,1.941-0.097,2.975-0.29s2.08-0.468,3.141-0.826v3.904
			c-0.634,0.276-1.604,0.538-2.913,0.785c-1.309,0.248-2.665,0.372-4.07,0.372c-1.419,0-2.765-0.183-4.039-0.547
			c-1.273-0.365-2.386-0.954-3.336-1.767c-0.95-0.813-1.705-1.866-2.263-3.161c-0.558-1.294-0.837-2.864-0.837-4.71
			c0-1.818,0.262-3.409,0.785-4.772c0.523-1.364,1.226-2.493,2.107-3.388c0.882-0.895,1.891-1.567,3.026-2.014
			c1.137-0.448,2.311-0.672,3.522-0.672c1.268,0,2.435,0.193,3.502,0.579c1.067,0.386,1.99,0.992,2.769,1.818
			c0.778,0.827,1.384,1.891,1.818,3.192c0.434,1.301,0.65,2.84,0.65,4.617c-0.014,0.689-0.034,1.274-0.062,1.756H57.843
			c0.068,0.923,0.275,1.712,0.62,2.366c0.344,0.654,0.795,1.185,1.353,1.591c0.559,0.406,1.209,0.703,1.953,0.888
			C62.512,34.34,63.317,34.434,64.186,34.434z M62.223,21.17c-0.62,0-1.171,0.114-1.652,0.341c-0.482,0.228-0.899,0.537-1.25,0.93
			c-0.352,0.393-0.631,0.851-0.837,1.374c-0.207,0.523-0.345,1.081-0.413,1.673h7.871c0-0.592-0.079-1.15-0.237-1.673
			c-0.159-0.523-0.393-0.981-0.703-1.374c-0.31-0.393-0.695-0.702-1.156-0.93C63.383,21.284,62.843,21.17,62.223,21.17z"/>
		<path fill="#006837" d="M91.2,37.863h-5.062V14.456h-8.925V10.22h22.891v4.235H91.2V37.863z"/>
		<path fill="#006837" d="M111.566,21.728h-0.413c-1.502,0-2.82,0.224-3.957,0.672c-1.136,0.447-2.014,1.133-2.634,2.055v13.408
			h-4.896V17.844h4.05l0.454,2.789h0.083c0.578-1.019,1.374-1.821,2.386-2.407c1.013-0.585,2.228-0.878,3.646-0.878
			c0.496,0,0.923,0.028,1.281,0.083V21.728z"/>
		<path fill="#006837" d="M123.71,34.434c0.95,0,1.941-0.097,2.975-0.29s2.08-0.468,3.141-0.826v3.904
			c-0.634,0.276-1.604,0.538-2.913,0.785c-1.309,0.248-2.665,0.372-4.07,0.372c-1.419,0-2.765-0.183-4.039-0.547
			c-1.273-0.365-2.386-0.954-3.336-1.767c-0.95-0.813-1.705-1.866-2.263-3.161c-0.558-1.294-0.837-2.864-0.837-4.71
			c0-1.818,0.262-3.409,0.785-4.772c0.523-1.364,1.226-2.493,2.107-3.388c0.882-0.895,1.891-1.567,3.026-2.014
			c1.137-0.448,2.311-0.672,3.522-0.672c1.268,0,2.435,0.193,3.502,0.579c1.067,0.386,1.99,0.992,2.769,1.818
			c0.778,0.827,1.384,1.891,1.818,3.192c0.434,1.301,0.65,2.84,0.65,4.617c-0.014,0.689-0.034,1.274-0.062,1.756h-13.119
			c0.068,0.923,0.275,1.712,0.62,2.366c0.344,0.654,0.795,1.185,1.353,1.591c0.559,0.406,1.209,0.703,1.953,0.888
			C122.036,34.34,122.842,34.434,123.71,34.434z M121.747,21.17c-0.62,0-1.171,0.114-1.652,0.341
			c-0.482,0.228-0.899,0.537-1.25,0.93c-0.352,0.393-0.631,0.851-0.837,1.374c-0.207,0.523-0.345,1.081-0.413,1.673h7.871
			c0-0.592-0.079-1.15-0.237-1.673c-0.159-0.523-0.393-0.981-0.703-1.374c-0.31-0.393-0.695-0.702-1.156-0.93
			C122.907,21.284,122.367,21.17,121.747,21.17z"/>
		<path fill="#006837" d="M144.345,34.434c0.95,0,1.941-0.097,2.975-0.29s2.08-0.468,3.141-0.826v3.904
			c-0.634,0.276-1.604,0.538-2.913,0.785c-1.309,0.248-2.665,0.372-4.07,0.372c-1.419,0-2.765-0.183-4.039-0.547
			c-1.273-0.365-2.386-0.954-3.336-1.767c-0.95-0.813-1.705-1.866-2.263-3.161c-0.558-1.294-0.837-2.864-0.837-4.71
			c0-1.818,0.262-3.409,0.785-4.772c0.523-1.364,1.226-2.493,2.107-3.388c0.882-0.895,1.891-1.567,3.026-2.014
			c1.137-0.448,2.311-0.672,3.522-0.672c1.268,0,2.435,0.193,3.502,0.579c1.067,0.386,1.99,0.992,2.769,1.818
			c0.778,0.827,1.384,1.891,1.818,3.192c0.434,1.301,0.65,2.84,0.65,4.617c-0.014,0.689-0.034,1.274-0.062,1.756h-13.119
			c0.068,0.923,0.275,1.712,0.62,2.366c0.344,0.654,0.795,1.185,1.353,1.591c0.559,0.406,1.209,0.703,1.953,0.888
			C142.671,34.34,143.477,34.434,144.345,34.434z M142.382,21.17c-0.62,0-1.171,0.114-1.652,0.341
			c-0.482,0.228-0.899,0.537-1.25,0.93c-0.352,0.393-0.631,0.851-0.837,1.374c-0.207,0.523-0.345,1.081-0.413,1.673h7.871
			c0-0.592-0.079-1.15-0.237-1.673c-0.159-0.523-0.393-0.981-0.703-1.374c-0.31-0.393-0.695-0.702-1.156-0.93
			C143.542,21.284,143.002,21.17,142.382,21.17z"/>
	</g>
	<g>
		<path fill="#4D4D4D" d="M10.124,54.976h2.823c1.326,0,2.286,0.198,2.878,0.595s0.889,1.023,0.889,1.88
			c0,0.593-0.165,1.081-0.496,1.466c-0.331,0.386-0.813,0.635-1.446,0.749v0.068c1.518,0.26,2.276,1.058,2.276,2.393
			c0,0.894-0.302,1.591-0.906,2.092s-1.448,0.752-2.533,0.752h-3.486V54.976z M11.286,59.255H13.2c0.82,0,1.411-0.129,1.771-0.386
			c0.36-0.258,0.54-0.691,0.54-1.303c0-0.561-0.201-0.965-0.602-1.213c-0.401-0.249-1.039-0.373-1.914-0.373h-1.709V59.255z
			 M11.286,60.239v3.739h2.085c0.807,0,1.414-0.156,1.822-0.469c0.408-0.312,0.612-0.801,0.612-1.466
			c0-0.62-0.208-1.075-0.625-1.367s-1.052-0.438-1.904-0.438H11.286z"/>
		<path fill="#4D4D4D" d="M18.535,57.478h1.217l1.641,4.272c0.36,0.975,0.583,1.68,0.67,2.112h0.055
			c0.059-0.232,0.184-0.63,0.373-1.192c0.189-0.563,0.808-2.294,1.856-5.192h1.217l-3.22,8.531
			c-0.319,0.843-0.691,1.441-1.118,1.794c-0.426,0.354-0.949,0.53-1.569,0.53c-0.346,0-0.688-0.038-1.025-0.116v-0.909
			c0.25,0.055,0.531,0.082,0.841,0.082c0.779,0,1.335-0.438,1.668-1.313l0.417-1.066L18.535,57.478z"/>
		<path fill="#4D4D4D" d="M38.324,57.888c0,1.012-0.345,1.79-1.036,2.335c-0.69,0.544-1.678,0.816-2.963,0.816h-1.176v3.931h-1.162
			v-9.994h2.591C37.075,54.976,38.324,55.946,38.324,57.888z M33.149,60.041h1.046c1.03,0,1.775-0.166,2.235-0.499
			s0.69-0.866,0.69-1.6c0-0.661-0.216-1.153-0.649-1.477s-1.107-0.485-2.023-0.485h-1.299V60.041z"/>
		<path fill="#4D4D4D" d="M44.362,57.341c0.333,0,0.631,0.027,0.896,0.082l-0.157,1.053c-0.31-0.068-0.583-0.103-0.82-0.103
			c-0.606,0-1.125,0.246-1.555,0.738s-0.646,1.105-0.646,1.839v4.02h-1.135v-7.492h0.937l0.13,1.388h0.055
			c0.278-0.488,0.613-0.863,1.005-1.128S43.893,57.341,44.362,57.341z"/>
		<path fill="#4D4D4D" d="M53.826,61.217c0,1.221-0.308,2.175-0.923,2.861c-0.615,0.686-1.465,1.028-2.55,1.028
			c-0.67,0-1.265-0.157-1.784-0.472s-0.92-0.766-1.203-1.354s-0.424-1.275-0.424-2.064c0-1.221,0.305-2.173,0.916-2.854
			c0.611-0.682,1.458-1.022,2.543-1.022c1.048,0,1.881,0.349,2.499,1.046S53.826,60.027,53.826,61.217z M48.118,61.217
			c0,0.957,0.191,1.686,0.574,2.188s0.946,0.752,1.688,0.752s1.307-0.25,1.692-0.748c0.385-0.5,0.578-1.23,0.578-2.191
			c0-0.953-0.192-1.676-0.578-2.17c-0.385-0.495-0.954-0.742-1.706-0.742c-0.743,0-1.303,0.244-1.682,0.731
			S48.118,60.25,48.118,61.217z"/>
		<path fill="#4D4D4D" d="M58.156,64.97l-2.844-7.492h1.217l1.613,4.443c0.365,1.039,0.579,1.714,0.643,2.023h0.055
			c0.05-0.241,0.208-0.741,0.475-1.501c0.267-0.758,0.865-2.414,1.794-4.966h1.217l-2.844,7.492H58.156z"/>
		<path fill="#4D4D4D" d="M64.133,55.447c0-0.26,0.064-0.45,0.191-0.57c0.127-0.121,0.287-0.182,0.479-0.182
			c0.182,0,0.339,0.062,0.472,0.185s0.198,0.312,0.198,0.567s-0.066,0.445-0.198,0.57c-0.132,0.126-0.29,0.188-0.472,0.188
			c-0.191,0-0.351-0.063-0.479-0.188C64.197,55.893,64.133,55.703,64.133,55.447z M65.364,64.97h-1.135v-7.492h1.135V64.97z"/>
		<path fill="#4D4D4D" d="M73.57,63.965h-0.062c-0.524,0.762-1.308,1.142-2.352,1.142c-0.98,0-1.742-0.335-2.287-1.005
			s-0.817-1.623-0.817-2.857s0.273-2.194,0.82-2.878s1.308-1.025,2.283-1.025c1.016,0,1.795,0.369,2.338,1.107h0.089l-0.048-0.54
			l-0.027-0.526v-3.049h1.135V64.97H73.72L73.57,63.965z M71.3,64.156c0.775,0,1.336-0.211,1.685-0.633
			c0.349-0.421,0.523-1.102,0.523-2.04v-0.239c0-1.063-0.177-1.819-0.53-2.273c-0.353-0.453-0.917-0.68-1.692-0.68
			c-0.666,0-1.175,0.259-1.528,0.775c-0.353,0.518-0.53,1.248-0.53,2.191c0,0.957,0.175,1.68,0.526,2.167S70.621,64.156,71.3,64.156
			z"/>
		<path fill="#4D4D4D" d="M80.914,65.106c-1.107,0-1.981-0.337-2.622-1.012s-0.96-1.61-0.96-2.81c0-1.207,0.297-2.167,0.892-2.878
			s1.394-1.066,2.396-1.066c0.939,0,1.682,0.309,2.229,0.927c0.547,0.617,0.82,1.432,0.82,2.443v0.718h-5.161
			c0.023,0.88,0.245,1.548,0.667,2.003s1.015,0.684,1.781,0.684c0.807,0,1.604-0.168,2.393-0.506v1.012
			c-0.401,0.174-0.78,0.297-1.138,0.373C81.852,65.068,81.42,65.106,80.914,65.106z M80.606,58.291
			c-0.602,0-1.081,0.195-1.439,0.588s-0.568,0.934-0.632,1.627h3.917c0-0.715-0.16-1.264-0.479-1.645
			C81.655,58.481,81.199,58.291,80.606,58.291z"/>
		<path fill="#4D4D4D" d="M91.431,64.97v-4.847c0-0.611-0.139-1.066-0.417-1.367s-0.713-0.451-1.306-0.451
			c-0.784,0-1.358,0.212-1.723,0.636s-0.547,1.124-0.547,2.099v3.931h-1.135v-7.492h0.923l0.185,1.025h0.055
			c0.232-0.369,0.558-0.655,0.978-0.858c0.419-0.202,0.886-0.304,1.401-0.304c0.902,0,1.582,0.218,2.037,0.653
			c0.456,0.435,0.684,1.131,0.684,2.088v4.888H91.431z"/>
		<path fill="#4D4D4D" d="M98.017,64.17c0.201,0,0.394-0.015,0.581-0.045c0.187-0.029,0.335-0.061,0.444-0.092v0.868
			c-0.123,0.06-0.304,0.108-0.543,0.147c-0.239,0.038-0.455,0.058-0.646,0.058c-1.449,0-2.174-0.763-2.174-2.29v-4.457h-1.073
			v-0.547l1.073-0.472l0.479-1.6h0.656v1.736h2.174v0.882h-2.174v4.409c0,0.451,0.107,0.798,0.321,1.039S97.643,64.17,98.017,64.17z
			"/>
	</g>
</g>
</svg>
