<?xml version="1.0" encoding="utf-8"?>
<!-- Generator: Adobe Illustrator 16.0.0, SVG Export Plug-In . SVG Version: 6.00 Build 0)  -->
<!DOCTYPE svg PUBLIC "-//W3C//DTD SVG 1.1//EN" "http://www.w3.org/Graphics/SVG/1.1/DTD/svg11.dtd">
<svg version="1.1" id="Layer_1" xmlns="http://www.w3.org/2000/svg" xmlns:xlink="http://www.w3.org/1999/xlink" x="0px" y="0px"
	 width="200px" height="200px" viewBox="0 0 200 200" enable-background="new 0 0 200 200" xml:space="preserve">
<g>
	<image overflow="visible" opacity="0.25" width="157" height="166" xlink:href="D326949A.png"  transform="matrix(1 0 0 1 24 17)">
	</image>
	<g>
		<g>
			<path fill="#FFFFFF" d="M99.188,144.575c0.41,2.21,1.089,2.213,1.506,0.002l7.688-40.567c0.422-2.211,0.425-5.831,0.018-8.042
				l-7.531-40.598c-0.405-2.213-1.082-2.212-1.503-0.003l-7.689,40.57c-0.419,2.206-0.43,5.827-0.014,8.04L99.188,144.575z
				 M100.225,96.175c2.519,0.003,4.551,2.049,4.547,4.567c-0.005,2.519-2.046,4.553-4.564,4.548
				c-2.518-0.006-4.552-2.049-4.546-4.569C95.665,98.206,97.709,96.168,100.225,96.175z"/>
			<path d="M100.208,105.29c2.518,0.005,4.559-2.029,4.564-4.548c0.004-2.518-2.028-4.563-4.547-4.567
				c-2.516-0.006-4.56,2.031-4.563,4.546C95.656,103.241,97.691,105.284,100.208,105.29z"/>
			<g>
				<path fill="#FFFFFF" d="M104.491,166.98c-0.001,0.895,0.029,1.86,0.09,2.88l-7.057-10.886l-2.192-0.002l-0.028,14.119
					l1.983,0.002l0.016-8.058c0.012-0.373-0.001-0.998-0.043-1.968c-0.015-0.313-0.027-0.584-0.039-0.81l7.047,10.851l2.172,0.005
					l0.032-14.118l-1.968-0.006L104.491,166.98z"/>
				<path fill="#FFFFFF" d="M101.002,34.489c0.858,0.313,1.463,0.58,1.847,0.817c0.378,0.231,0.644,0.48,0.792,0.743
					c0.15,0.259,0.227,0.607,0.226,1.034c-0.001,0.565-0.201,0.99-0.612,1.299c-0.424,0.322-1.028,0.486-1.814,0.486
					c-1.02,0-2.09-0.234-3.18-0.694l-0.244-0.103l-0.661,1.847l0.213,0.094c1.157,0.508,2.447,0.768,3.833,0.771h0.016
					c1.339,0,2.438-0.329,3.269-0.978c0.851-0.662,1.281-1.57,1.281-2.698c0.005-1.053-0.287-1.928-0.869-2.601
					c-0.568-0.653-1.516-1.219-2.815-1.684c-0.886-0.318-1.553-0.605-1.983-0.852c-0.405-0.234-0.696-0.488-0.865-0.752
					c-0.162-0.261-0.244-0.607-0.243-1.027c0.002-0.638,0.232-1.119,0.702-1.471c0.489-0.362,1.239-0.546,2.259-0.546
					c0.608,0,1.242,0.068,1.884,0.203c0.643,0.134,1.241,0.318,1.778,0.547l0.348,0.148l0.007-2.063l-0.143-0.068
					c-0.902-0.432-2.192-0.652-3.868-0.654c-1.524,0-2.755,0.354-3.658,1.051c-0.935,0.716-1.41,1.725-1.411,3
					c0,0.992,0.291,1.813,0.866,2.444C98.532,33.404,99.529,33.963,101.002,34.489z M101.417,40.532L101.417,40.532L101.417,40.532
					L101.417,40.532z"/>
				<path fill="#FFFFFF" d="M167.645,92.99l-0.05-0.186l-1.94-0.004l-2.736,9.236c-0.169,0.544-0.313,1.069-0.432,1.57
					c-0.141-0.549-0.286-1.06-0.431-1.515l-2.782-9.302l-1.944-0.006l-3.806,14.112l2.194,0.007l2.212-8.579
					c0.181-0.696,0.328-1.321,0.444-1.885c0.147,0.689,0.313,1.336,0.496,1.934l2.601,8.539l0.931,0.001l0.002,0.023l1.116-0.021
					l2.511-8.454c0.195-0.642,0.364-1.297,0.505-1.961c0.113,0.576,0.25,1.185,0.409,1.822l2.185,8.606l2.195,0.001L167.645,92.99z"
					/>
				<polygon fill="#FFFFFF" points="33.585,96.16 39.592,96.171 39.586,100.684 33.938,100.672 33.935,102.57 39.58,102.581 
					39.572,106.467 33.565,106.457 33.559,108.363 41.654,108.381 41.682,94.264 33.587,94.244 				"/>
			</g>
			<g>
				<path fill="#FFFFFF" d="M146.844,145.619l6.622,6.254l2.227-2.359l-6.64-6.273C148.335,144.052,147.601,144.843,146.844,145.619
					z"/>
				<path fill="#FFFFFF" d="M54.827,54.207l-7.81-7.38l-2.229,2.356l7.787,7.358C53.309,55.744,54.057,54.965,54.827,54.207z"/>
				<path fill="#FFFFFF" d="M145.537,53.77l7.229-7.645l-2.358-2.229l-7.256,7.676C143.97,52.285,144.764,53.017,145.537,53.77z"/>
				<path fill="#FFFFFF" d="M54.124,145.79l-6.405,6.781l2.359,2.227l6.381-6.755C55.66,147.309,54.886,146.559,54.124,145.79z"/>
			</g>
		</g>
	</g>
</g>
</svg>
