<?xml version="1.0" encoding="utf-8"?>
<!-- Generator: Adobe Illustrator 16.0.0, SVG Export Plug-In . SVG Version: 6.00 Build 0)  -->
<!DOCTYPE svg PUBLIC "-//W3C//DTD SVG 1.1//EN" "http://www.w3.org/Graphics/SVG/1.1/DTD/svg11.dtd">
<svg version="1.1" id="Layer_1" xmlns="http://www.w3.org/2000/svg" xmlns:xlink="http://www.w3.org/1999/xlink" x="0px" y="0px"
	 width="49.75px" height="26.125px" viewBox="0 0 49.75 26.125" enable-background="new 0 0 49.75 26.125" xml:space="preserve">
<g>
	<path opacity="0.8" enable-background="new    " d="M49.396,15.897c0,5.457-4.465,9.922-9.922,9.922H10.276
		c-5.457,0-9.921-4.465-9.921-9.922v-5.67c0-5.455,4.464-9.921,9.921-9.921h29.197c5.457,0,9.922,4.466,9.922,9.921V15.897z"/>
</g>
<g>
	<path fill="#FFFFFF" d="M10.421,9.903h1.367l1.962,5.449l1.976-5.449h1.366l-2.686,6.986h-1.313L10.421,9.903z"/>
	<path fill="#FFFFFF" d="M18.659,8.823V7.469h1.359v1.354H18.659z M18.7,16.889V9.903h1.277v6.986H18.7z"/>
	<path fill="#FFFFFF" d="M21.913,13.479c0-2.457,1.027-3.686,3.082-3.686c0.006,0,0.01,0,0.014,0c0.936,0,1.683,0.305,2.24,0.915
		c0.557,0.61,0.836,1.428,0.836,2.452c0,0.334-0.014,0.652-0.041,0.959h-4.826c0.156,1.199,0.813,1.799,1.97,1.799
		c0.942,0,1.748-0.176,2.414-0.525v1.164c-0.722,0.305-1.534,0.455-2.441,0.455c-0.014,0-0.026,0-0.041,0
		c-0.409,0-0.788-0.052-1.135-0.154s-0.685-0.271-1.011-0.51c-0.328-0.236-0.588-0.602-0.776-1.093
		C22.007,14.765,21.913,14.173,21.913,13.479z M23.198,12.972h3.588c-0.018-0.231-0.058-0.454-0.119-0.667
		c-0.062-0.211-0.154-0.427-0.279-0.646c-0.127-0.219-0.307-0.394-0.545-0.521c-0.235-0.131-0.52-0.195-0.848-0.195
		c-0.588,0-1.02,0.151-1.295,0.455C23.425,11.7,23.257,12.225,23.198,12.972z"/>
	<path fill="#FFFFFF" d="M29.009,9.903h1.305l1.676,5.168l1.537-5.168h1.184l1.56,5.17l1.454-5.17h1.308l-2.203,6.986H35.66
		l-1.575-5.014l-1.588,5.014H31.21L29.009,9.903z"/>
</g>
</svg>
