<?xml version="1.0" encoding="utf-8"?>
<!-- Generator: Adobe Illustrator 16.0.0, SVG Export Plug-In . SVG Version: 6.00 Build 0)  -->
<!DOCTYPE svg PUBLIC "-//W3C//DTD SVG 1.1//EN" "http://www.w3.org/Graphics/SVG/1.1/DTD/svg11.dtd">
<svg version="1.1" id="Layer_1" xmlns="http://www.w3.org/2000/svg" xmlns:xlink="http://www.w3.org/1999/xlink" x="0px" y="0px"
	 width="841.89px" height="509.414px" viewBox="0 0 841.89 509.414" enable-background="new 0 0 841.89 509.414"
	 xml:space="preserve">
<path fill="#BCBEC0" d="M419.993,74.635l1.595-7.501L106.753,12.152l-2.229,8.146l289.12,49.447L335.95,183.893l0.434,0.214
	l-0.434,1.08l17.637,7.092l0.021,48.315c1.334,0.397,2.584,0.708,4.017,1.1v-56.394h-4.038v2.627l-12.614-5.073L397.773,70.51
	L419.993,74.635z"/>
<path fill="#BCBEC0" d="M259.221,248.318l-30.19-8.16l-10.584,0.608l-0.605-0.844l13.762-29.266l1.914-23.252
	c-0.865-0.598-1.686-1.287-2.73-1.508c-0.112-0.024-0.183-0.082-0.234-0.152l-1.79,0.304l-24.265,4.904l0.907,4.481l23.059-4.662
	l-1.15,18.24l-14.469,28.207v8.605l18.734-1.382l23.069,7.233v22.388c1.471-0.525,2.763-0.981,4.572-1.601v-23.912h-0.073
	L259.221,248.318z"/>
<path fill="#D1D3D4" d="M405.946,262.405l-68.353,183.338l3.151,1.175l68.526-183.654
	C408.098,262.893,407.044,262.617,405.946,262.405z"/>
<path fill="#D1D3D4" d="M647.92,147.677l-11.042,111.642l-0.818-0.031l-2.614,70.062c0.02,0.012,0.03,0.633,0.048,0.646
	c1.173,0.915,1.793,1.431,3.108,2.549l2.505-67.258l0.58,0.115l11.554-116.805l0.036,0.01l-0.027-0.111l0.027-0.257l-0.089-0.017
	l-17.341-76.046l-3.188,0.744l16.9,74.658L647.92,147.677z"/>
<path fill="#D1D3D4" d="M627.981,334.294l-82.162,25.962l-15.239,54.963l3.152,0.882l14.74-52.799l82.871-26.545
	C630.255,335.959,628.308,334.46,627.981,334.294z"/>
<path fill="#D1D3D4" d="M760.987,330.948c0.506,0.234,2.45,1.413,2.996,1.611l6.369-15.629l-1.029-0.423l-7.186-38.666l-3.324,0.619
	l7.378,39.701L760.987,330.948z"/>
<path fill="#BCBEC0" d="M764.057,332.256c-0.578-0.225-3.123-1.299-3.123-1.299l-49.099,3.968H662.99l-0.428-1.048l-18.698,4.392
	l-10.48-8.36l-21.745-17.35l-110.88-38.617l-18.226,1.484l-30.524-9.04l61.738-166.741l-7.927-2.254l-61.956,166.583l-86.239-22.28
	c0,0-5.345-1.464-5.4-1.479l-93.004,32.207l-4.572,1.581l-54.807,18.979L54.834,255.393l78.74-236.349l-8.796-3.041L13.394,346.581
	l8.798,3.038l29.99-86.57l150.67,37.434l149.758-51.856l53.336,13.779l32.858,8.489l-46.118,94.039l-8.613,74.607l1.632,0.222
	l33.458,18.437l3.874-7.029l-29.852-16.451l8.115-67.623l-0.223-0.032l45.521-94.079l31.699,9.604l18.26-1.751l106.54,35.073
	l-0.079,0.1l40.061,29.34l21.959-5.418l-0.662-1.625h44.933l0.019,0.214l2.634-0.214h0.998v-0.081l47.988-3.877l15.531,9.394
	l1.751-2.894L764.057,332.256z"/>
<text transform="matrix(1 0 0 1 277.9551 149.2319)"><tspan x="0" y="0" fill="#6D6E71" font-family="'OpenSans'" font-size="6.5">STATE BANK OF INDIA</tspan><tspan x="20.211" y="7.8" fill="#6D6E71" font-family="'OpenSans'" font-size="6.5">COLONY</tspan></text>
<text transform="matrix(1 0 0 1 167.4473 124.0498)"><tspan x="0" y="0" fill="#6D6E71" font-family="'OpenSans'" font-size="6.5">ACHARYA BANGALORE</tspan><tspan x="0" y="7.8" fill="#6D6E71" font-family="'OpenSans'" font-size="6.5">B SCHOOL</tspan></text>
<text transform="matrix(1 0 0 1 268.1089 112.1538)"><tspan x="0" y="0" fill="#6D6E71" font-family="'OpenSans'" font-size="6.5">BYRAVESHWARA</tspan><tspan x="-5.181" y="7.8" fill="#6D6E71" font-family="'OpenSans'" font-size="6.5">INDUSTRIAL ESTATE</tspan></text>
<text transform="matrix(1 0 0 1 156.5122 160.6724)"><tspan x="0" y="0" fill="#6D6E71" font-family="'OpenSans'" font-size="6.5">EAST WEST INTERNATIONAL</tspan><tspan x="29.458" y="7.8" fill="#6D6E71" font-family="'OpenSans'" font-size="6.5">SCHOOL</tspan></text>
<text transform="matrix(1 0 0 1 174.4072 264.2407)" font-family="'HelveticaNeue-Roman'" font-size="6.5">HEROHALLI LAKE</text>
<text transform="matrix(1 0 0 1 244.3374 297.7773)"><tspan x="0" y="0" fill="#6D6E71" font-family="'OpenSans'" font-size="6.5">BYADARAHALLI</tspan><tspan x="-1.898" y="7.8" fill="#6D6E71" font-family="'OpenSans'" font-size="6.5">POLICE STATION</tspan></text>
<text transform="matrix(1 0 0 1 340.874 268.5146)"><tspan x="0" y="0" fill="#6D6E71" font-family="'OpenSans'" font-size="6.5">GT GROUP OF</tspan><tspan x="-0.188" y="7.8" fill="#6D6E71" font-family="'OpenSans'" font-size="6.5">INSTITUTIONS</tspan></text>
<text transform="matrix(1 0 0 1 368.0459 235.8218)" fill="#6D6E71" font-family="'OpenSans'" font-size="6.5">VIJAYA BANK</text>
<text transform="matrix(1 0 0 1 398.6118 199.0645)"><tspan x="0" y="0" fill="#6D6E71" font-family="'OpenSans'" font-size="6.5">NATIONAL INSTITUTE</tspan><tspan x="1.036" y="7.8" fill="#6D6E71" font-family="'OpenSans'" font-size="6.5">OF UNANI MEDICINE</tspan></text>
<text transform="matrix(1 0 0 1 459.9297 95.3516)"><tspan x="0" y="0" fill="#6D6E71" font-family="'OpenSans'" font-size="6.5">TOWARDS</tspan><tspan x="-10.296" y="7.8" fill="#6D6E71" font-family="'OpenSans'" font-size="6.5">YESHWANTHPUR</tspan></text>
<text transform="matrix(1 0 0 1 312.7783 93.0801)"><tspan x="0" y="0" fill="#6D6E71" font-family="'OpenSans'" font-size="6.5">PEENYA INDUSTRIAL </tspan><tspan x="9.458" y="7.8" fill="#6D6E71" font-family="'OpenSans'" font-size="6.5">AREA PHASE IV</tspan></text>
<text transform="matrix(1 0 0 1 176.0791 319.1182)" fill="#6D6E71" font-family="'OpenSans'" font-size="6.5">CORPORATION BANK</text>
<text transform="matrix(1 0 0 1 113.1377 306.2422)"><tspan x="0" y="0" fill="#6D6E71" font-family="'OpenSans'" font-size="6.5">PRAJWAL COLLEGE</tspan><tspan x="9.039" y="7.799" fill="#6D6E71" font-family="'OpenSans'" font-size="6.5">OF NURSING</tspan></text>
<text transform="matrix(0.3515 -0.9362 0.9362 0.3515 484.4443 172.8369)" font-family="'OpenSans'" font-size="5.804">OUTER RING ROAD</text>
<text transform="matrix(0.4495 -0.8933 0.8933 0.4495 401.3047 362.6875)" font-family="'OpenSans'" font-size="5.804">OUTER RING ROAD</text>
<text transform="matrix(0.3805 -0.9248 0.9248 0.3805 358.8184 376.8438)" fill="#6D6E71" font-family="'OpenSans'" font-size="6.5">OLD OUTER RING ROAD</text>
<text transform="matrix(0.9479 0.3187 -0.3187 0.9479 500.3418 279.8145)" font-family="'HelveticaNeue-Bold'" font-size="5.5517">MAGADI MAIN ROAD</text>
<text transform="matrix(1 0 0 1 644.9346 355.7822)" fill="#6D6E71" font-family="'OpenSans'" font-size="6.5">MAGADI ROAD METRO</text>
<text transform="matrix(1 0 0 1 582.8486 290.4063)"><tspan x="0" y="0" fill="#6D6E71" font-family="'OpenSans'" font-size="6.5">RAJAJINAGAR</tspan><tspan x="-9.262" y="7.8" fill="#6D6E71" font-family="'OpenSans'" font-size="6.5">INDUSTRIAL TOWN</tspan></text>
<g>
	
		<text transform="matrix(0.0906 -0.9959 0.9959 0.0906 647.9375 256.999)" fill="#6D6E71" font-family="'HelveticaNeue-Roman'" font-size="5.8041">WEST OF CHORD ROAD</text>
</g>
<text transform="matrix(1 0 0 1 68.7329 319.0879)"><tspan x="0" y="0" fill="#6D6E71" font-family="'OpenSans'" font-size="6.5">SUNSHINE</tspan><tspan x="-9.749" y="7.799" fill="#6D6E71" font-family="'OpenSans'" font-size="6.5">PUBLIC SCHOOL,</tspan><tspan x="-7.404" y="15.6" fill="#6D6E71" font-family="'OpenSans'" font-size="6.5">GOLLARAHATTI</tspan></text>
<text transform="matrix(1 0 0 1 76.9067 226.5718)"><tspan x="0" y="0" fill="#6D6E71" font-family="'OpenSans'" font-size="6.5">ANNIE BESANT CONVENT</tspan><tspan x="13.273" y="7.8" fill="#6D6E71" font-family="'OpenSans'" font-size="6.5">&amp; HIGH SCHOOL</tspan></text>
<text transform="matrix(1 0 0 1 545.8389 213.6147)" fill="#6D6E71" font-family="'OpenSans'" font-size="6.5">BASAWESHWARA NAGAR</text>
<text transform="matrix(1 0 0 1 532.5781 247.8252)"><tspan x="0" y="0" fill="#6D6E71" font-family="'OpenSans'" font-size="6.5">INTERNATIONAL INSTITUTE OF</tspan><tspan x="10.331" y="7.8" fill="#6D6E71" font-family="'OpenSans'" font-size="6.5">FASHION TECHNOLOGY</tspan></text>
<text transform="matrix(1 0 0 1 470.1646 369.4297)" fill="#6D6E71" font-family="'OpenSans'" font-size="6.5">GOVINDARAJA NAGAR</text>
<text transform="matrix(1 0 0 1 378.2524 460.2959)"><tspan x="0" y="0" fill="#6D6E71" font-family="'OpenSans'" font-size="6.5">PANACEA</tspan><tspan x="-0.682" y="7.8" fill="#6D6E71" font-family="'OpenSans'" font-size="6.5">HOSPITAL</tspan></text>
<text transform="matrix(1 0 0 1 567.6162 365.9268)"><tspan x="0" y="0" fill="#6D6E71" font-family="'OpenSans'" font-size="6.5">VIJAYANAGAR</tspan><tspan x="-4.666" y="7.8" fill="#6D6E71" font-family="'OpenSans'" font-size="6.5">METRO STATION</tspan></text>
<text transform="matrix(1 0 0 1 423.1719 386.3027)" fill="#6D6E71" font-family="'OpenSans'" font-size="6.5">SHOBHA HOSPITAL</text>
<text transform="matrix(1 0 0 1 591.833 157.8022)"><tspan x="0" y="0" fill="#6D6E71" font-family="'OpenSans'" font-size="6.5">RAJAJINAGAR</tspan><tspan x="17.246" y="7.8" fill="#6D6E71" font-family="'OpenSans'" font-size="6.5">METRO</tspan></text>
<text transform="matrix(1 0 0 1 672.4727 187.5361)" fill="#6D6E71" font-family="'OpenSans'" font-size="6.5">RAJAJINAGAR</text>
<text transform="matrix(1 0 0 1 640.0879 84.478)" fill="#6D6E71" font-family="'OpenSans'" font-size="6.5">ORION MALL</text>
<text transform="matrix(1 0 0 1 686.5654 131.8164)" fill="#6D6E71" font-family="'OpenSans'" font-size="6.5">MALLESHWARAM</text>
<text transform="matrix(1 0 0 1 744.1641 354.4404)"><tspan x="0" y="0" fill="#6D6E71" font-family="'OpenSans'" font-size="6.5">BANGALORE</tspan><tspan x="0.571" y="7.8" fill="#6D6E71" font-family="'OpenSans'" font-size="6.5">CITY METRO</tspan></text>
<text transform="matrix(1 0 0 1 780.0146 289.3711)"><tspan x="0" y="0" fill="#6D6E71" font-family="'OpenSans'" font-size="6.5">BANGALORE</tspan><tspan x="0" y="7.8" fill="#6D6E71" font-family="'OpenSans'" font-size="6.5">CITY JUNCTION</tspan></text>
<text transform="matrix(0.3226 -0.9465 0.9465 0.3226 49.1177 264.127)" font-family="'OpenSans'" font-size="5.804">NICE RING ROAD (TOLL ROAD)</text>
<polygon fill="#00A651" points="207.219,183.11 204.499,212.381 188.059,207.835 191.873,183.11 "/>
<g>
	<path fill="#2A4699" d="M117.482,189.217h1.682v-3.151h2.231v3.151h2.014v1.725h-2.014v5.609c0,0.957,0.079,1.443,1.074,1.443
		c0.313,0,0.627,0,0.939-0.081v1.788c-0.489,0.04-0.958,0.121-1.448,0.121c-2.328,0-2.758-0.934-2.797-2.682v-6.198h-1.682V189.217"
		/>
	<path fill="#2A4699" d="M125.014,185.213h2.229v5.384h0.039c0.548-0.956,1.703-1.667,3.033-1.667c2.191,0,3.579,1.219,3.579,3.577
		v7.213h-2.23v-6.604c-0.039-1.646-0.664-2.357-1.975-2.357c-1.486,0-2.445,1.219-2.445,2.764v6.197h-2.229V185.213"/>
	<path fill="#2A4699" d="M137.983,195.067c0,1.645,0.86,3.108,2.718,3.108c1.292,0,2.074-0.587,2.465-1.746h2.112
		c-0.489,2.295-2.367,3.576-4.577,3.576c-3.169,0-4.949-2.296-4.949-5.527c0-2.987,1.879-5.547,4.89-5.547
		c3.188,0,5.146,2.987,4.774,6.136H137.983 M143.186,193.543c-0.079-1.462-1.036-2.783-2.543-2.783
		c-1.546,0-2.601,1.219-2.659,2.783H143.186z"/>
	<polyline fill="#0D7944" points="146.101,185.213 157.406,185.213 157.406,187.406 152.965,187.406 152.965,199.721 
		150.521,199.721 150.521,187.406 146.101,187.406 146.101,185.213 	"/>
	<path fill="#0D7944" d="M158.717,189.217h2.092v2.03h0.04c0.254-1.118,1.585-2.316,2.954-2.316c0.509,0,0.646,0.04,0.843,0.061
		v2.236c-0.314-0.042-0.646-0.104-0.96-0.104c-1.525,0-2.737,1.284-2.737,3.599v4.999h-2.231V189.217"/>
	<path fill="#0D7944" d="M167.344,195.067c0,1.645,0.86,3.108,2.719,3.108c1.29,0,2.073-0.587,2.465-1.746h2.112
		c-0.489,2.295-2.366,3.576-4.577,3.576c-3.169,0-4.95-2.296-4.95-5.527c0-2.987,1.879-5.547,4.893-5.547
		c3.188,0,5.145,2.987,4.772,6.136H167.344 M172.547,193.543c-0.077-1.462-1.037-2.783-2.542-2.783
		c-1.545,0-2.603,1.219-2.662,2.783H172.547z"/>
	<path fill="#0D7944" d="M178.221,195.067c0,1.645,0.859,3.108,2.718,3.108c1.292,0,2.074-0.587,2.465-1.746h2.113
		c-0.487,2.295-2.367,3.576-4.578,3.576c-3.167,0-4.948-2.296-4.948-5.527c0-2.987,1.878-5.547,4.89-5.547
		c3.188,0,5.145,2.987,4.774,6.136H178.221 M183.425,193.543c-0.08-1.462-1.037-2.783-2.544-2.783c-1.545,0-2.601,1.219-2.66,2.783
		H183.425z"/>
	<path fill="#2A4699" d="M176.988,202.435l0.006,0.266c0,0.146-0.12,0.261-0.256,0.261h-2.289v0.792h1.97
		c0.142,0,0.252,0.116,0.252,0.255v0.283c0,0.143-0.11,0.254-0.252,0.254h-1.97v0.795h2.282c0.133,0,0.244,0.112,0.244,0.255v0.278
		c0,0.125-0.107,0.248-0.249,0.248h-3.044c-0.142,0-0.248-0.117-0.248-0.265v-3.43c0-0.14,0.111-0.253,0.248-0.253h3.057
		C176.874,202.175,176.988,202.289,176.988,202.435"/>
	<path fill="#2A4699" d="M178.025,206.12c-0.135,0-0.25-0.115-0.25-0.259v-3.424c0-0.143,0.109-0.262,0.244-0.262h0.604
		c0,0,0.45-0.024,0.654,0.284l1.415,2.282v-2.312c0-0.139,0.114-0.254,0.251-0.254h0.517c0.143,0,0.249,0.115,0.249,0.262v3.428
		c0,0.143-0.103,0.254-0.244,0.254h-0.602c0,0-0.475,0.038-0.671-0.279l-1.398-2.264v2.289c0,0.143-0.111,0.254-0.247,0.254H178.025
		"/>
	<path fill="#2A4699" d="M185.936,202.174c0.14,0,0.247,0.108,0.247,0.255v0.261c0,0.146-0.108,0.258-0.25,0.258h-1.176v2.913
		c0,0.144-0.111,0.257-0.246,0.257h-0.521c-0.138,0-0.249-0.112-0.249-0.254v-2.917h-1.177c-0.14,0-0.249-0.112-0.249-0.258v-0.261
		c0-0.146,0.112-0.255,0.255-0.255H185.936"/>
	<path fill="#2A4699" d="M159.561,205.437c-0.637,0-1.152-0.315-1.152-1.29c0-0.973,0.515-1.288,1.152-1.288
		c0.635,0,1.15,0.301,1.15,1.288C160.711,205.134,160.196,205.437,159.561,205.437 M159.561,202.104c-1.622,0-2.12,0.914-2.12,2.042
		c0,1.128,0.519,2.042,2.12,2.042c1.6,0,2.12-0.914,2.12-2.042C161.681,203.018,161.183,202.104,159.561,202.104"/>
	<path fill="#2A4699" d="M154.093,202.959v0.925h1.39c0.146,0,0.442-0.08,0.442-0.442c0-0.358-0.206-0.483-0.442-0.483H154.093
		 M154.093,204.674v1.208c0,0.104-0.096,0.238-0.237,0.238h-0.542c-0.136,0-0.24-0.124-0.24-0.247v-3.441
		c0-0.147,0.11-0.258,0.245-0.258h2.062c0.906,0,1.56,0.415,1.56,1.25c0,0.607-0.314,0.925-0.771,1.117c0,0,0.102,0.165,0.318,0.52
		l0.482,0.794c0.087,0.144,0.05,0.259-0.091,0.259h-0.669c-0.132,0-0.319-0.115-0.402-0.259l-0.453-0.732
		c-0.136-0.219-0.331-0.45-0.671-0.45H154.093z"/>
	<path fill="#2A4699" d="M166.94,202.434c0-0.146,0.114-0.259,0.25-0.259h0.512c0.143,0,0.254,0.113,0.254,0.259v3.431
		c0,0.141-0.111,0.258-0.254,0.258h-0.512c-0.136,0-0.25-0.112-0.25-0.252V202.434"/>
	<path fill="#2A4699" d="M169.816,202.965v2.381h0.686c0.711,0,1.201-0.349,1.201-1.193c0-0.845-0.533-1.188-1.201-1.188H169.816
		 M170.531,202.183c1.545,0,2.194,0.625,2.194,1.97c0,1.346-0.648,1.969-2.194,1.969h-1.48c-0.136,0-0.251-0.112-0.251-0.252v-3.424
		c0-0.146,0.107-0.263,0.251-0.263H170.531z"/>
	<path fill="#2A4699" d="M166.038,202.175h-0.583c-0.034,0-0.173,0-0.295,0.242l-0.68,1.518l-0.366,0.819l-0.523,1.172
		c0.074,0.12,0.177,0.195,0.333,0.195h0.38c0.191,0,0.305-0.112,0.381-0.282l1.508-3.384
		C166.192,202.457,166.336,202.175,166.038,202.175"/>
	<path fill="#2A4699" d="M163.808,204.061l-0.711-1.604c-0.127-0.281-0.288-0.281-0.325-0.281h-0.581
		c-0.288,0-0.156,0.281-0.156,0.281l1.245,2.788L163.808,204.061"/>
	<path fill="#2A4699" d="M149.584,202.959v1.233h1.186c0.347,0,0.642-0.159,0.642-0.582c0-0.526-0.313-0.651-0.642-0.651H149.584
		 M150.836,202.175c1.01,0,1.599,0.367,1.599,1.426c0,1.064-0.622,1.373-1.563,1.373h-1.288v0.893c0,0.142-0.111,0.253-0.248,0.253
		h-0.523c-0.136,0-0.246-0.115-0.246-0.259v-3.429c0-0.147,0.102-0.257,0.238-0.257H150.836z"/>
	<path fill="#2A4699" d="M139.284,202.163h0.609v1.466h0.011c0.167-0.277,0.514-0.451,0.823-0.451c0.872,0,1.294,0.689,1.294,1.529
		c0,0.772-0.375,1.5-1.193,1.5c-0.374,0-0.775-0.097-0.957-0.472h-0.011v0.393h-0.576V202.163 M140.646,203.679
		c-0.514,0-0.776,0.405-0.776,1.016c0,0.579,0.284,1.011,0.776,1.011c0.556,0,0.765-0.511,0.765-1.011
		C141.411,204.173,141.149,203.679,140.646,203.679z"/>
	<path fill="#2A4699" d="M142.229,203.256h0.668l0.723,2.144h0.01l0.701-2.144h0.636l-1.076,3.027
		c-0.196,0.517-0.341,0.983-0.978,0.983c-0.144,0-0.283-0.01-0.422-0.034V206.7c0.098,0.016,0.192,0.038,0.29,0.038
		c0.283,0,0.352-0.154,0.427-0.398l0.069-0.222L142.229,203.256"/>
</g>
<rect x="707.222" y="118.597" fill="#662D91" width="5.756" height="5.757"/>
<rect x="689.29" y="189.585" fill="#662D91" width="5.757" height="5.757"/>
<rect x="582.245" y="200.875" fill="#662D91" width="5.756" height="5.756"/>
<rect x="500.668" y="356.18" fill="#662D91" width="5.757" height="5.756"/>
<rect x="308.359" y="160.253" fill="#662D91" width="5.757" height="5.757"/>
<text transform="matrix(1 0 0 1 239.0186 231.8535)"><tspan x="0" y="0" fill="#6D6E71" font-family="'OpenSans'" font-size="6.5">HEROHALLI</tspan><tspan x="0" y="7.8" fill="#6D6E71" font-family="'OpenSans'" font-size="6.5">POST OFFICE</tspan></text>
<rect x="229.899" y="233.282" fill="#662D91" width="5.756" height="5.757"/>
<text transform="matrix(1 0 0 1 262.3135 201.1392)"><tspan x="0" y="0" fill="#6D6E71" font-family="'OpenSans'" font-size="6.5">KEMPAMMADEVI</tspan><tspan x="13.701" y="7.8" fill="#6D6E71" font-family="'OpenSans'" font-size="6.5">TEMPLE</tspan></text>
<polygon fill="#A2DEF9" points="215.505,248.491 230,245.612 253.432,252.901 253.934,259.475 237.104,264.564 236.893,274.498 
	228.488,274.498 223.98,259.099 "/>
<text transform="matrix(1 0 0 1 317.3203 456.7402)"><tspan x="0" y="0" fill="#6D6E71" font-family="'OpenSans'" font-size="6.5">DR. AMBEDKAR</tspan><tspan x="-39.057" y="7.801" fill="#6D6E71" font-family="'OpenSans'" font-size="6.5">INSTITUTE OF TECHNOLOGY</tspan></text>
<g>
	<path d="M495.479,95.2l4.772-6.208l-0.017,7.828l-1.578-3.154L495.479,95.2z"/>
</g>
<g>
	<text transform="matrix(0.9861 0.166 -0.166 0.9861 242.9048 42.5283)" font-family="'OpenSans'" font-size="5.804">TUMKUR ROAD</text>
</g>
<text transform="matrix(1 0 0 1 32.4575 355.7822)"><tspan x="0" y="0" fill="#6D6E71" font-family="'OpenSans'" font-size="6.5">TOWARDS</tspan><tspan x="-10.959" y="7.8" fill="#6D6E71" font-family="'OpenSans'" font-size="6.5">ELECTRONIC CITY</tspan></text>
<g>
	<path d="M30.027,350.349l-4.757,6.217l-0.002-7.828l1.586,3.15L30.027,350.349z"/>
</g>
<text transform="matrix(1 0 0 1 441.8936 453.959)"><tspan x="0" y="0" fill="#6D6E71" font-family="'OpenSans'" font-size="5.804">TOWARDS</tspan><tspan x="-6.375" y="6.965" fill="#6D6E71" font-family="'OpenSans'" font-size="5.804">MYSORE ROAD</tspan></text>
<g>
	<path d="M425.055,453.318l5.008,6.016l-7.635-1.732l3.424-0.849L425.055,453.318z"/>
</g>
<path fill="#A2DEF9" d="M262.576,413.71c-1.96,0.933,0.532,4.799-2.966,3.413c-3.065-1.215-0.463-4.021,1.052-5.326
	c1.573-1.358,2.586-3.126,4.082-4.62c1.424-1.423,3.593-2.949,4.274-4.944c0.477-1.396,0.595-5.283,0.102-6.645
	c-0.437-1.204-1.464-1.206-1.882-2.291c-0.417-1.089,0.342-2.807,0.648-3.785c1.703-5.449,2.513-11.499,5.055-16.841
	c0.837-1.761,0.787-1.69,2.829-1.702c1.349-0.007,2.938-0.234,4.252,0c2.02,0.36,1.746,0.846,2.749,2.707
	c0.553,1.025,1.333,2.109,1.954,2.997c1.597-0.163,4.85-4.188,6.55-5.324c2.541-1.698,4.488-2.684,7.341-0.798
	c-1.622,1.285-1.94,4.586-2.615,6.58c-0.616,1.818-1.058,4.131-1.327,5.965c-0.582,3.96-0.196,7.865-0.974,11.668
	c2.593,0.081,3.232,0,3.323,2.667c0.104,3.083-0.203,2.575-2.765,3.095c-2.44,0.497-2.093,2.688-2.98,4.891
	c-0.99,2.455-2.245,4.732-3.621,7.059c-0.359,0.606-0.784,2.509-1.298,2.939c-1.187,0.995-3.115,0.231-4.491-0.009
	c-2.42-0.423-4.606-1.414-6.953-2.126c-4.589-1.392-8.199-2.985-11.914,0.218"/>
<text transform="matrix(1 0 0 1 207.271 399.3906)" fill="#6D6E71" font-family="'OpenSans'" font-size="6.5">MALATHALLI LAKE</text>
<path fill-rule="evenodd" clip-rule="evenodd" fill="#F26522" d="M289.094,192.921c0.125,0.068,0.276,0.101,0.299,0.173
	c0.075,0.24,0.236,0.479,0.117,0.743c-0.029,0.061-0.145,0.115-0.22,0.116c-1.497,0.005-2.995,0.005-4.492,0.003
	c-0.224-0.001-0.35-0.342-0.223-0.58c0.051-0.094,0.081-0.207,0.148-0.283c0.063-0.07,0.168-0.102,0.279-0.167
	c0.003-0.03,0.007-0.097,0.007-0.164c0-1.099,0.001-2.197-0.002-3.295c0-0.085-0.034-0.17-0.053-0.254c-0.02,0-0.039,0-0.059,0
	c0.396-0.655,0.79-1.311,1.186-1.965c0.207-0.34,0.402-0.688,0.622-1.02c0.121-0.182,0.14-0.368,0.138-0.577
	c-0.011-0.842-0.008-1.685-0.009-2.526c0-0.066,0.014-0.134,0.027-0.244c1.55,0.449,3.087,0.895,4.625,1.339
	c0.003,0.014,0.004,0.028,0.007,0.041c-0.309,0.091-0.616,0.183-0.924,0.273c-0.995,0.288-1.991,0.572-2.985,0.864
	c-0.122,0.037-0.324,0.096-0.333,0.165c-0.025,0.19-0.022,0.421,0.067,0.583c0.363,0.648,0.761,1.277,1.146,1.915
	c0.21,0.347,0.499,0.672,0.605,1.048c0.106,0.37,0.026,0.792,0.026,1.192c0.001,0.819,0,1.64,0,2.459
	C289.094,192.827,289.094,192.894,289.094,192.921z"/>
<g>
	<path fill-rule="evenodd" clip-rule="evenodd" fill="#006838" d="M552.646,371.784c0.038-0.055,0.076-0.081,0.146-0.079
		c0.976,0.001,1.952,0.001,2.929,0c0.071-0.002,0.108,0.024,0.146,0.079c0.164,0.241,0.326,0.479,0.49,0.719h0.932
		c-0.318-0.478-0.636-0.955-0.954-1.433c-0.017-0.025-0.033-0.051-0.048-0.078c0.453-0.115,0.768-0.391,0.939-0.814
		c0.062-0.152,0.102-0.327,0.102-0.492c0.008-1.645,0.008-3.288,0.004-4.932c-0.001-0.65-0.503-1.215-1.145-1.308
		c-0.078-0.013-0.158-0.02-0.236-0.02c-1.159,0-2.317-0.003-3.476,0.003c-0.62,0.004-1.194,0.525-1.275,1.141
		c-0.008,0.073-0.017,0.147-0.017,0.219c-0.001,1.619-0.001,3.24,0,4.859c0,0.56,0.333,1.067,0.828,1.272
		c0.069,0.028,0.143,0.046,0.216,0.072c-0.012,0.02-0.023,0.043-0.034,0.062c-0.322,0.484-0.645,0.967-0.967,1.448h0.934
		C552.32,372.264,552.485,372.025,552.646,371.784z M555.972,370.265c-0.326,0.004-0.604-0.27-0.604-0.598
		c-0.002-0.332,0.267-0.599,0.599-0.604c0.333,0,0.604,0.268,0.604,0.598C556.571,369.989,556.301,370.261,555.972,370.265z
		 M553.364,363.938c0.006-0.125,0.095-0.223,0.22-0.223c0.449-0.003,0.897-0.003,1.347,0c0.125,0,0.215,0.098,0.218,0.221
		c0.004,0.123,0.006,0.244,0.001,0.365c-0.005,0.152-0.094,0.24-0.247,0.242c-0.214,0.001-0.429,0-0.645,0s-0.431,0.001-0.646,0
		c-0.151-0.002-0.241-0.09-0.247-0.242C553.361,364.18,553.361,364.059,553.364,363.938z M551.925,365.539
		c0.002-0.463,0.263-0.728,0.729-0.728c0.841-0.001,1.687-0.001,2.528,0c0.28,0.001,0.561-0.002,0.837,0.018
		c0.321,0.022,0.561,0.287,0.567,0.613c0.008,0.314,0.007,0.632,0.003,0.945c-0.005,0.413-0.274,0.679-0.69,0.681
		c-0.549,0.004-1.098,0-1.647,0c-0.543,0-1.086,0.003-1.629,0c-0.277,0-0.503-0.105-0.629-0.367
		c-0.039-0.081-0.061-0.179-0.064-0.271C551.922,366.135,551.924,365.837,551.925,365.539z M551.929,369.666
		c-0.001-0.329,0.271-0.601,0.603-0.603c0.333,0,0.599,0.265,0.601,0.599c0,0.333-0.268,0.602-0.6,0.603
		C552.206,370.268,551.932,369.993,551.929,369.666z"/>
</g>
<g>
	<path fill-rule="evenodd" clip-rule="evenodd" fill="#006838" d="M677.741,348.532c0.039-0.054,0.076-0.08,0.145-0.079
		c0.978,0.003,1.954,0.003,2.931,0c0.069-0.001,0.107,0.025,0.146,0.079c0.162,0.24,0.326,0.48,0.488,0.72h0.932
		c-0.318-0.478-0.637-0.954-0.954-1.434c-0.017-0.026-0.031-0.052-0.049-0.078c0.454-0.115,0.768-0.39,0.939-0.813
		c0.063-0.154,0.103-0.328,0.104-0.494c0.007-1.643,0.007-3.286,0.003-4.934c0-0.646-0.503-1.211-1.146-1.305
		c-0.079-0.012-0.157-0.019-0.234-0.019c-1.159,0-2.318-0.004-3.478,0.004c-0.618,0.003-1.193,0.523-1.274,1.14
		c-0.009,0.071-0.017,0.145-0.017,0.218c-0.001,1.62-0.001,3.239,0,4.859c0,0.558,0.333,1.067,0.828,1.273
		c0.068,0.028,0.142,0.046,0.218,0.071c-0.015,0.021-0.024,0.043-0.037,0.063c-0.32,0.484-0.643,0.965-0.964,1.448h0.931
		C677.416,349.013,677.579,348.772,677.741,348.532z M681.064,347.013c-0.326,0.003-0.602-0.269-0.603-0.598
		c-0.002-0.33,0.267-0.6,0.598-0.602c0.331-0.001,0.604,0.267,0.604,0.597C681.665,346.738,681.396,347.01,681.064,347.013z
		 M678.46,340.686c0.004-0.124,0.093-0.22,0.218-0.22c0.45-0.006,0.897-0.006,1.347,0c0.125,0,0.215,0.095,0.218,0.218
		c0.005,0.122,0.006,0.244,0.001,0.365c-0.005,0.152-0.094,0.24-0.246,0.242c-0.215,0.001-0.431,0-0.647,0
		c-0.214,0-0.429,0.001-0.645,0c-0.151-0.002-0.24-0.09-0.245-0.242C678.456,340.93,678.456,340.806,678.46,340.686z
		 M677.019,342.288c0.002-0.466,0.263-0.729,0.728-0.729c0.844-0.001,1.687-0.001,2.529,0c0.28,0.002,0.559-0.002,0.838,0.018
		c0.319,0.022,0.561,0.286,0.566,0.613c0.008,0.314,0.007,0.632,0.002,0.946c-0.003,0.412-0.273,0.679-0.689,0.68
		c-0.549,0.003-1.1,0-1.646,0c-0.544,0-1.087,0.003-1.63,0c-0.278-0.001-0.504-0.105-0.627-0.367
		c-0.039-0.082-0.063-0.178-0.066-0.271C677.016,342.884,677.018,342.584,677.019,342.288z M677.022,346.414
		c0-0.328,0.271-0.6,0.603-0.601c0.333,0,0.6,0.266,0.601,0.599c0,0.33-0.268,0.6-0.598,0.601
		C677.301,347.016,677.024,346.741,677.022,346.414z"/>
</g>
<g>
	<path fill-rule="evenodd" clip-rule="evenodd" fill="#006838" d="M638.055,161.621c0.037-0.056,0.074-0.082,0.145-0.081
		c0.978,0.002,1.953,0.002,2.931,0c0.068-0.001,0.106,0.024,0.144,0.081c0.164,0.238,0.325,0.478,0.491,0.718h0.931
		c-0.317-0.478-0.636-0.955-0.955-1.434c-0.015-0.025-0.031-0.05-0.048-0.078c0.454-0.114,0.769-0.39,0.94-0.813
		c0.062-0.154,0.102-0.329,0.103-0.493c0.007-1.645,0.007-3.289,0.003-4.933c-0.001-0.649-0.504-1.213-1.146-1.307
		c-0.077-0.011-0.156-0.019-0.234-0.019c-1.16,0-2.318-0.003-3.477,0.004c-0.621,0.004-1.194,0.525-1.276,1.141
		c-0.007,0.072-0.016,0.145-0.016,0.217c0,1.62,0,3.24,0,4.86c0,0.559,0.333,1.067,0.828,1.272c0.069,0.028,0.144,0.047,0.217,0.071
		c-0.012,0.022-0.023,0.043-0.036,0.063c-0.321,0.483-0.643,0.965-0.965,1.448h0.933
		C637.729,162.099,637.894,161.859,638.055,161.621z M641.379,160.101c-0.327,0.002-0.604-0.27-0.605-0.599
		c-0.002-0.33,0.267-0.599,0.599-0.601c0.332-0.002,0.604,0.266,0.605,0.596C641.979,159.826,641.709,160.098,641.379,160.101z
		 M638.771,153.773c0.005-0.125,0.095-0.222,0.219-0.222c0.45-0.003,0.898-0.003,1.347,0c0.125,0,0.216,0.095,0.218,0.221
		c0.005,0.121,0.005,0.242,0.001,0.363c-0.004,0.153-0.094,0.24-0.244,0.242c-0.216,0.001-0.431,0-0.646,0
		c-0.215,0-0.43,0.001-0.646,0c-0.151-0.002-0.241-0.089-0.247-0.242C638.77,154.016,638.77,153.893,638.771,153.773z
		 M637.333,155.374c0.001-0.464,0.262-0.727,0.729-0.727c0.842-0.001,1.685-0.001,2.528,0c0.28,0.001,0.559-0.002,0.836,0.017
		c0.32,0.023,0.561,0.287,0.569,0.613c0.007,0.315,0.005,0.632,0.002,0.946c-0.005,0.413-0.274,0.679-0.692,0.682
		c-0.549,0.002-1.097,0-1.646,0c-0.543,0-1.086,0.001-1.629,0c-0.278-0.001-0.505-0.106-0.629-0.367
		c-0.038-0.083-0.062-0.18-0.063-0.271C637.328,155.97,637.331,155.672,637.333,155.374z M637.337,159.501
		c-0.003-0.328,0.27-0.599,0.601-0.6c0.335,0,0.601,0.263,0.601,0.597c0,0.332-0.266,0.601-0.599,0.602
		C637.613,160.102,637.339,159.828,637.337,159.501z"/>
</g>
<g>
	<path fill-rule="evenodd" clip-rule="evenodd" fill="#006838" d="M759.89,347.077c0.037-0.055,0.075-0.081,0.146-0.08
		c0.977,0.002,1.953,0.002,2.929,0c0.071-0.001,0.108,0.025,0.146,0.08c0.161,0.239,0.325,0.479,0.488,0.719h0.933
		c-0.318-0.479-0.637-0.955-0.953-1.434c-0.018-0.024-0.033-0.051-0.05-0.079c0.455-0.114,0.767-0.389,0.938-0.813
		c0.063-0.154,0.102-0.328,0.104-0.492c0.008-1.646,0.008-3.288,0.004-4.934c-0.001-0.649-0.504-1.213-1.146-1.307
		c-0.077-0.011-0.156-0.02-0.233-0.02c-1.159,0-2.318-0.002-3.477,0.004c-0.62,0.005-1.195,0.525-1.275,1.141
		c-0.009,0.071-0.016,0.145-0.016,0.219c-0.002,1.619-0.002,3.239,0,4.859c0,0.558,0.333,1.066,0.827,1.271
		c0.068,0.028,0.142,0.048,0.217,0.071c-0.013,0.021-0.023,0.045-0.037,0.064c-0.32,0.482-0.642,0.965-0.965,1.447h0.934
		C759.563,347.556,759.729,347.316,759.89,347.077z M763.215,345.557c-0.328,0.004-0.604-0.268-0.605-0.598s0.267-0.6,0.599-0.602
		c0.332-0.001,0.604,0.267,0.604,0.596C763.813,345.282,763.544,345.555,763.215,345.557z M760.608,339.229
		c0.003-0.124,0.093-0.222,0.218-0.222c0.449-0.003,0.899-0.003,1.347,0c0.123,0,0.214,0.097,0.22,0.222
		c0.003,0.12,0.004,0.243,0,0.362c-0.006,0.154-0.097,0.242-0.248,0.243c-0.215,0.002-0.429,0-0.646,0c-0.215,0-0.431,0.002-0.645,0
		c-0.153-0.001-0.242-0.089-0.246-0.243C760.604,339.474,760.604,339.35,760.608,339.229z M759.166,340.833
		c0.002-0.467,0.264-0.729,0.729-0.729c0.842-0.001,1.688-0.001,2.528,0c0.28,0.001,0.56-0.002,0.838,0.017
		c0.32,0.022,0.56,0.287,0.566,0.612c0.007,0.315,0.006,0.632,0.002,0.946c-0.004,0.413-0.273,0.68-0.688,0.682
		c-0.55,0.002-1.099,0-1.648,0c-0.543,0-1.086,0.001-1.629,0c-0.277-0.002-0.504-0.106-0.628-0.366
		c-0.039-0.082-0.062-0.18-0.065-0.271C759.163,341.427,759.166,341.129,759.166,340.833z M759.171,344.957
		c-0.002-0.326,0.271-0.599,0.603-0.6c0.333,0,0.599,0.266,0.601,0.598c0,0.333-0.268,0.602-0.598,0.602
		C759.45,345.559,759.173,345.286,759.171,344.957z"/>
</g>
<g>
	<path fill-rule="evenodd" clip-rule="evenodd" fill="#006838" d="M771.764,296.008c0.037-0.055,0.075-0.079,0.146-0.078
		c0.978,0.002,1.951,0.002,2.93,0c0.069-0.001,0.107,0.023,0.145,0.078c0.163,0.24,0.325,0.479,0.49,0.72h0.931
		c-0.317-0.479-0.637-0.955-0.954-1.434c-0.016-0.026-0.032-0.051-0.049-0.079c0.455-0.115,0.769-0.391,0.94-0.813
		c0.062-0.153,0.102-0.328,0.102-0.493c0.008-1.643,0.008-3.288,0.005-4.934c-0.002-0.648-0.505-1.211-1.146-1.306
		c-0.078-0.011-0.156-0.019-0.234-0.019c-1.159,0-2.318-0.004-3.477,0.005c-0.622,0.003-1.193,0.523-1.275,1.14
		c-0.009,0.07-0.016,0.145-0.016,0.218c-0.001,1.62-0.001,3.238,0,4.859c0,0.559,0.332,1.067,0.827,1.272
		c0.069,0.028,0.142,0.045,0.218,0.071c-0.015,0.022-0.024,0.043-0.036,0.063c-0.322,0.482-0.644,0.966-0.965,1.448h0.931
		C771.438,296.487,771.602,296.248,771.764,296.008z M775.089,294.488c-0.328,0.002-0.604-0.269-0.605-0.598
		c-0.002-0.331,0.267-0.601,0.599-0.602s0.603,0.266,0.604,0.597C775.688,294.214,775.418,294.485,775.089,294.488z M772.482,288.16
		c0.003-0.125,0.094-0.22,0.219-0.22c0.449-0.007,0.897-0.007,1.346,0c0.124,0,0.215,0.094,0.218,0.219
		c0.003,0.121,0.004,0.242,0.001,0.365c-0.005,0.152-0.095,0.239-0.246,0.241c-0.215,0.001-0.43,0-0.646,0
		c-0.215,0-0.43,0.001-0.646,0c-0.151-0.002-0.241-0.089-0.245-0.241C772.479,288.403,772.479,288.28,772.482,288.16z
		 M771.041,289.764c0.001-0.465,0.264-0.729,0.728-0.729c0.844-0.001,1.687-0.001,2.529,0c0.279,0.001,0.56-0.002,0.837,0.016
		c0.321,0.024,0.562,0.288,0.568,0.615c0.006,0.315,0.006,0.632,0.002,0.945c-0.004,0.413-0.274,0.679-0.689,0.681
		c-0.55,0.002-1.099,0-1.647,0c-0.543,0-1.086,0.002-1.63,0c-0.278-0.001-0.504-0.105-0.628-0.367
		c-0.038-0.081-0.062-0.178-0.064-0.271C771.037,290.358,771.041,290.059,771.041,289.764z M771.046,293.89
		c-0.003-0.328,0.27-0.6,0.602-0.601c0.334,0,0.601,0.264,0.602,0.598c0,0.331-0.268,0.601-0.6,0.602
		C771.323,294.489,771.048,294.216,771.046,293.89z"/>
</g>
<g>
	<path fill-rule="evenodd" clip-rule="evenodd" fill="#2E3192" d="M151.531,129.32c0.246-0.236,0.494-0.452,0.714-0.695
		c0.604-0.663,1.022-1.423,1.171-2.317c0.014-0.083,0.002-0.144-0.05-0.213c-0.219-0.288-0.12-0.668,0.204-0.836
		c0.051-0.026,0.098-0.078,0.128-0.128c0.116-0.197,0.225-0.398,0.342-0.607c-0.213-0.067-0.431-0.136-0.649-0.203
		c-0.339-0.104-0.679-0.206-1.019-0.309c-0.028-0.01-0.056-0.019-0.084-0.029c-0.117-0.035-0.188-0.107-0.187-0.234
		c0.001-0.126,0.079-0.195,0.193-0.23c0.302-0.094,0.602-0.188,0.904-0.278c1.182-0.363,2.364-0.724,3.547-1.085
		c0.395-0.121,0.791-0.247,1.19-0.36c0.086-0.024,0.192-0.02,0.278,0.006c1.406,0.425,2.811,0.857,4.215,1.287
		c0.451,0.139,0.901,0.275,1.351,0.415c0.057,0.018,0.119,0.039,0.162,0.078c0.151,0.128,0.097,0.338-0.104,0.401
		c-0.317,0.102-0.637,0.195-0.956,0.292c-0.942,0.289-1.884,0.579-2.826,0.868c-0.62,0.191-1.239,0.381-1.859,0.565
		c-0.076,0.023-0.17,0.032-0.242,0.01c-0.849-0.255-1.694-0.518-2.542-0.777c-0.006-0.002-0.012-0.01-0.042-0.036
		c0.213-0.099,0.41-0.203,0.615-0.286c0.692-0.282,1.414-0.457,2.149-0.576c0.192-0.031,0.305-0.163,0.28-0.322
		c-0.027-0.183-0.167-0.273-0.374-0.242c-0.945,0.145-1.869,0.369-2.719,0.82c-0.282,0.15-0.535,0.363-0.785,0.567
		c-0.106,0.087-0.172,0.225-0.25,0.344c-0.063,0.094-0.08,0.179-0.004,0.292c0.137,0.214,0.085,0.491-0.107,0.66
		c-0.064,0.056-0.083,0.108-0.076,0.189c0.04,0.549,0.04,1.098-0.024,1.647c-0.053,0.466-0.145,0.923-0.364,1.345
		c-0.163,0.312-0.372,0.576-0.746,0.65c-0.211,0.042-0.413,0.004-0.607-0.078C152.037,129.782,151.77,129.57,151.531,129.32z"/>
	<path fill-rule="evenodd" clip-rule="evenodd" fill="#2E3192" d="M155.148,125.457c0.76,0.232,1.479,0.452,2.197,0.672
		c0.141,0.043,0.281,0.086,0.421,0.132c0.204,0.065,0.404,0.058,0.611-0.006c0.837-0.262,1.677-0.514,2.516-0.769
		c0.012-0.005,0.025-0.006,0.063-0.015c0.086,0.283,0.176,0.566,0.259,0.85c0.031,0.107,0.049,0.219,0.07,0.33
		c0.05,0.254,0.004,0.487-0.146,0.703c-0.312,0.447-0.733,0.759-1.215,0.991c-1.325,0.637-2.642,0.594-3.939-0.084
		c-0.396-0.207-0.741-0.48-0.992-0.859c-0.146-0.222-0.226-0.46-0.162-0.726C154.931,126.271,155.04,125.874,155.148,125.457z"/>
</g>
<g>
	<path fill-rule="evenodd" clip-rule="evenodd" fill="#2E3192" d="M191.391,178.321c0.246-0.235,0.495-0.452,0.715-0.694
		c0.604-0.663,1.022-1.424,1.171-2.318c0.014-0.083,0.002-0.144-0.051-0.214c-0.219-0.288-0.119-0.668,0.204-0.835
		c0.051-0.026,0.098-0.077,0.128-0.128c0.116-0.197,0.225-0.398,0.342-0.607c-0.214-0.067-0.431-0.136-0.649-0.203
		c-0.339-0.104-0.678-0.205-1.018-0.309c-0.029-0.009-0.057-0.02-0.086-0.028c-0.115-0.035-0.186-0.108-0.185-0.234
		c0.001-0.127,0.079-0.195,0.192-0.23c0.302-0.095,0.603-0.188,0.905-0.279c1.181-0.362,2.364-0.722,3.546-1.083
		c0.396-0.123,0.791-0.248,1.19-0.361c0.086-0.024,0.192-0.02,0.278,0.006c1.405,0.426,2.811,0.858,4.215,1.288
		c0.45,0.139,0.901,0.275,1.351,0.414c0.057,0.018,0.118,0.04,0.162,0.078c0.15,0.13,0.097,0.337-0.105,0.402
		c-0.317,0.102-0.637,0.194-0.956,0.292c-0.942,0.289-1.884,0.579-2.825,0.868c-0.621,0.19-1.24,0.38-1.86,0.566
		c-0.076,0.021-0.169,0.03-0.242,0.008c-0.849-0.256-1.695-0.517-2.542-0.778c-0.006-0.002-0.012-0.008-0.042-0.035
		c0.213-0.099,0.41-0.203,0.615-0.285c0.692-0.282,1.414-0.458,2.15-0.576c0.191-0.031,0.304-0.163,0.28-0.323
		c-0.027-0.184-0.166-0.273-0.374-0.241c-0.945,0.145-1.868,0.369-2.719,0.819c-0.282,0.15-0.535,0.363-0.785,0.567
		c-0.106,0.088-0.172,0.226-0.25,0.344c-0.062,0.094-0.079,0.18-0.004,0.293c0.137,0.213,0.085,0.491-0.107,0.66
		c-0.064,0.057-0.082,0.11-0.076,0.189c0.041,0.55,0.041,1.098-0.023,1.647c-0.052,0.467-0.145,0.924-0.364,1.344
		c-0.162,0.312-0.372,0.576-0.745,0.65c-0.211,0.043-0.413,0.004-0.607-0.078C191.896,178.783,191.629,178.573,191.391,178.321z"/>
	<path fill-rule="evenodd" clip-rule="evenodd" fill="#2E3192" d="M195.008,174.458c0.76,0.233,1.479,0.453,2.197,0.672
		c0.141,0.044,0.281,0.087,0.421,0.131c0.205,0.067,0.404,0.059,0.611-0.006c0.837-0.261,1.678-0.513,2.517-0.77
		c0.011-0.004,0.024-0.005,0.062-0.013c0.087,0.282,0.177,0.565,0.26,0.848c0.031,0.108,0.048,0.22,0.07,0.331
		c0.05,0.254,0.004,0.487-0.146,0.703c-0.311,0.445-0.733,0.759-1.214,0.99c-1.325,0.637-2.643,0.594-3.94-0.084
		c-0.394-0.206-0.74-0.48-0.991-0.858c-0.146-0.222-0.226-0.461-0.161-0.727C194.791,175.274,194.9,174.875,195.008,174.458z"/>
</g>
<g>
	<path fill-rule="evenodd" clip-rule="evenodd" fill="#2E3192" d="M128.303,298.314c0.247-0.236,0.495-0.452,0.714-0.694
		c0.604-0.664,1.022-1.425,1.172-2.318c0.014-0.083,0.003-0.143-0.051-0.213c-0.218-0.288-0.119-0.669,0.205-0.835
		c0.051-0.027,0.098-0.078,0.128-0.13c0.116-0.196,0.224-0.399,0.341-0.607c-0.214-0.065-0.431-0.135-0.649-0.202
		c-0.338-0.103-0.679-0.207-1.018-0.31c-0.028-0.008-0.057-0.019-0.085-0.026c-0.117-0.037-0.188-0.11-0.186-0.236
		c0.001-0.125,0.078-0.195,0.192-0.23c0.302-0.092,0.603-0.188,0.904-0.278c1.183-0.362,2.365-0.724,3.547-1.084
		c0.396-0.122,0.792-0.247,1.19-0.361c0.086-0.022,0.192-0.019,0.278,0.009c1.406,0.425,2.811,0.855,4.215,1.286
		c0.451,0.139,0.901,0.274,1.352,0.415c0.056,0.018,0.117,0.039,0.161,0.077c0.151,0.129,0.097,0.338-0.105,0.403
		c-0.317,0.1-0.637,0.193-0.956,0.292c-0.941,0.287-1.883,0.578-2.825,0.866c-0.621,0.191-1.24,0.379-1.861,0.565
		c-0.076,0.022-0.169,0.031-0.242,0.01c-0.848-0.257-1.695-0.518-2.542-0.778c-0.006-0.001-0.013-0.009-0.042-0.036
		c0.212-0.099,0.41-0.203,0.615-0.285c0.693-0.282,1.414-0.456,2.15-0.575c0.191-0.032,0.303-0.164,0.279-0.323
		c-0.028-0.183-0.166-0.272-0.374-0.241c-0.945,0.145-1.87,0.369-2.719,0.82c-0.282,0.149-0.535,0.362-0.784,0.566
		c-0.106,0.087-0.172,0.225-0.25,0.345c-0.062,0.095-0.079,0.178-0.005,0.292c0.138,0.214,0.085,0.492-0.107,0.661
		c-0.063,0.057-0.082,0.108-0.076,0.188c0.041,0.55,0.041,1.099-0.023,1.647c-0.053,0.464-0.146,0.923-0.364,1.344
		c-0.162,0.312-0.373,0.575-0.745,0.65c-0.212,0.042-0.414,0.004-0.607-0.078C128.809,298.774,128.542,298.565,128.303,298.314z"/>
	<path fill-rule="evenodd" clip-rule="evenodd" fill="#2E3192" d="M131.921,294.449c0.76,0.232,1.479,0.455,2.197,0.675
		c0.141,0.043,0.282,0.085,0.421,0.131c0.205,0.066,0.404,0.059,0.611-0.007c0.837-0.261,1.678-0.514,2.516-0.768
		c0.012-0.005,0.025-0.007,0.063-0.016c0.087,0.283,0.177,0.565,0.26,0.85c0.032,0.106,0.049,0.218,0.07,0.33
		c0.05,0.253,0.004,0.486-0.146,0.701c-0.311,0.446-0.733,0.759-1.215,0.993c-1.325,0.636-2.642,0.593-3.94-0.086
		c-0.395-0.206-0.741-0.481-0.991-0.857c-0.146-0.223-0.226-0.461-0.161-0.726C131.704,295.266,131.813,294.867,131.921,294.449z"/>
</g>
<g>
	<path fill-rule="evenodd" clip-rule="evenodd" fill="#2E3192" d="M569.84,238.591c0.245-0.235,0.495-0.452,0.715-0.694
		c0.604-0.664,1.022-1.423,1.171-2.319c0.015-0.082,0.005-0.143-0.049-0.212c-0.22-0.288-0.12-0.667,0.202-0.836
		c0.051-0.025,0.097-0.077,0.128-0.128c0.117-0.197,0.226-0.398,0.344-0.607c-0.215-0.067-0.433-0.136-0.65-0.203
		c-0.338-0.104-0.679-0.207-1.018-0.31c-0.028-0.008-0.058-0.019-0.086-0.028c-0.115-0.035-0.188-0.108-0.188-0.234
		c0.003-0.126,0.08-0.196,0.195-0.231c0.302-0.093,0.601-0.187,0.902-0.277c1.183-0.363,2.366-0.724,3.547-1.084
		c0.396-0.123,0.793-0.247,1.191-0.361c0.085-0.023,0.192-0.02,0.277,0.007c1.407,0.425,2.81,0.856,4.216,1.288
		c0.449,0.138,0.9,0.274,1.351,0.415c0.057,0.018,0.119,0.04,0.163,0.077c0.149,0.129,0.095,0.337-0.106,0.401
		c-0.316,0.102-0.637,0.195-0.956,0.292c-0.942,0.29-1.882,0.58-2.823,0.868c-0.622,0.19-1.241,0.38-1.861,0.565
		c-0.076,0.023-0.169,0.032-0.241,0.01c-0.85-0.256-1.695-0.517-2.543-0.778c-0.006-0.002-0.013-0.009-0.041-0.036
		c0.213-0.098,0.41-0.202,0.614-0.286c0.692-0.282,1.414-0.456,2.149-0.575c0.19-0.032,0.305-0.163,0.279-0.323
		c-0.026-0.183-0.165-0.272-0.373-0.241c-0.945,0.144-1.869,0.369-2.719,0.82c-0.283,0.15-0.535,0.363-0.786,0.567
		c-0.106,0.088-0.17,0.225-0.25,0.344c-0.061,0.094-0.08,0.179-0.004,0.293c0.138,0.213,0.085,0.491-0.107,0.658
		c-0.063,0.057-0.082,0.11-0.076,0.189c0.04,0.55,0.04,1.099-0.023,1.648c-0.053,0.465-0.145,0.922-0.364,1.345
		c-0.162,0.312-0.374,0.576-0.745,0.651c-0.212,0.042-0.411,0.003-0.606-0.08C570.346,239.053,570.079,238.842,569.84,238.591z"/>
	<path fill-rule="evenodd" clip-rule="evenodd" fill="#2E3192" d="M573.458,234.727c0.76,0.232,1.48,0.454,2.196,0.673
		c0.144,0.043,0.283,0.086,0.422,0.131c0.206,0.066,0.405,0.06,0.611-0.006c0.837-0.261,1.679-0.514,2.517-0.769
		c0.011-0.004,0.024-0.005,0.062-0.014c0.088,0.282,0.176,0.564,0.261,0.849c0.029,0.107,0.048,0.218,0.068,0.33
		c0.051,0.253,0.005,0.487-0.146,0.702c-0.31,0.446-0.732,0.759-1.213,0.991c-1.327,0.638-2.644,0.594-3.939-0.083
		c-0.396-0.208-0.742-0.481-0.992-0.858c-0.146-0.223-0.225-0.461-0.161-0.728C573.24,235.543,573.351,235.145,573.458,234.727z"/>
</g>
<g>
	<path fill-rule="evenodd" clip-rule="evenodd" fill="#2E3192" d="M426.177,190.244c0.246-0.236,0.495-0.451,0.713-0.693
		c0.605-0.664,1.022-1.424,1.172-2.319c0.015-0.083,0.003-0.143-0.05-0.213c-0.219-0.288-0.12-0.668,0.203-0.836
		c0.051-0.026,0.098-0.077,0.128-0.128c0.116-0.198,0.225-0.398,0.343-0.607c-0.214-0.067-0.431-0.136-0.65-0.203
		c-0.338-0.104-0.679-0.207-1.018-0.31c-0.028-0.008-0.057-0.019-0.086-0.028c-0.116-0.035-0.186-0.108-0.186-0.234
		c0.002-0.126,0.079-0.196,0.193-0.23c0.301-0.093,0.602-0.188,0.904-0.278c1.182-0.362,2.365-0.724,3.547-1.084
		c0.396-0.123,0.792-0.248,1.19-0.362c0.086-0.023,0.193-0.02,0.277,0.008c1.407,0.424,2.811,0.856,4.216,1.288
		c0.45,0.139,0.901,0.274,1.352,0.415c0.056,0.018,0.118,0.04,0.162,0.077c0.149,0.128,0.096,0.338-0.106,0.401
		c-0.316,0.103-0.636,0.195-0.955,0.292c-0.943,0.289-1.884,0.58-2.825,0.868c-0.622,0.191-1.24,0.38-1.861,0.565
		c-0.075,0.023-0.17,0.032-0.242,0.011c-0.848-0.256-1.694-0.518-2.542-0.779c-0.006-0.002-0.012-0.01-0.041-0.036
		c0.212-0.098,0.409-0.203,0.615-0.286c0.692-0.282,1.414-0.456,2.149-0.576c0.191-0.031,0.303-0.163,0.28-0.321
		c-0.027-0.183-0.166-0.273-0.373-0.242c-0.946,0.144-1.87,0.369-2.72,0.821c-0.282,0.149-0.535,0.362-0.785,0.566
		c-0.106,0.088-0.171,0.225-0.25,0.344c-0.061,0.094-0.079,0.179-0.004,0.293c0.137,0.213,0.085,0.491-0.108,0.658
		c-0.064,0.058-0.082,0.111-0.075,0.19c0.039,0.549,0.039,1.098-0.024,1.647c-0.054,0.465-0.146,0.922-0.365,1.345
		c-0.162,0.311-0.372,0.575-0.744,0.65c-0.211,0.042-0.414,0.004-0.608-0.079C426.681,190.706,426.416,190.496,426.177,190.244z"/>
	<path fill-rule="evenodd" clip-rule="evenodd" fill="#2E3192" d="M429.794,186.38c0.759,0.232,1.479,0.454,2.196,0.673
		c0.142,0.043,0.282,0.086,0.421,0.131c0.205,0.067,0.404,0.059,0.612-0.007c0.837-0.26,1.678-0.513,2.515-0.768
		c0.012-0.004,0.026-0.007,0.063-0.014c0.087,0.282,0.176,0.564,0.259,0.849c0.032,0.107,0.049,0.218,0.07,0.331
		c0.05,0.252,0.004,0.486-0.146,0.702c-0.31,0.445-0.733,0.759-1.214,0.99c-1.325,0.637-2.642,0.594-3.938-0.083
		c-0.395-0.207-0.741-0.481-0.991-0.858c-0.146-0.223-0.226-0.461-0.163-0.728C429.577,187.196,429.687,186.797,429.794,186.38z"/>
</g>
<g>
	<path fill-rule="evenodd" clip-rule="evenodd" fill="#2E3192" d="M354.391,261.509c0.246-0.236,0.495-0.452,0.713-0.693
		c0.604-0.664,1.022-1.423,1.172-2.319c0.013-0.083,0.002-0.143-0.049-0.213c-0.22-0.288-0.122-0.668,0.202-0.835
		c0.052-0.026,0.099-0.078,0.128-0.129c0.116-0.196,0.225-0.397,0.342-0.606c-0.213-0.067-0.43-0.135-0.649-0.203
		c-0.339-0.104-0.679-0.207-1.018-0.31c-0.028-0.008-0.057-0.019-0.086-0.028c-0.115-0.036-0.186-0.108-0.186-0.235
		c0.002-0.126,0.079-0.194,0.192-0.23c0.303-0.093,0.603-0.188,0.904-0.278c1.182-0.363,2.365-0.723,3.547-1.085
		c0.396-0.121,0.791-0.246,1.19-0.36c0.086-0.023,0.192-0.02,0.277,0.007c1.406,0.425,2.812,0.856,4.216,1.287
		c0.451,0.139,0.901,0.276,1.351,0.416c0.057,0.017,0.119,0.038,0.162,0.076c0.15,0.129,0.097,0.337-0.105,0.402
		c-0.316,0.101-0.636,0.194-0.955,0.292c-0.942,0.289-1.884,0.58-2.826,0.868c-0.621,0.191-1.239,0.38-1.861,0.566
		c-0.074,0.022-0.168,0.031-0.241,0.01c-0.849-0.256-1.694-0.518-2.542-0.779c-0.006-0.001-0.012-0.008-0.042-0.035
		c0.213-0.099,0.41-0.203,0.615-0.286c0.691-0.282,1.414-0.457,2.148-0.576c0.191-0.031,0.304-0.163,0.28-0.322
		c-0.028-0.184-0.166-0.273-0.374-0.242c-0.945,0.144-1.869,0.369-2.719,0.82c-0.282,0.149-0.534,0.363-0.785,0.566
		c-0.106,0.088-0.171,0.225-0.25,0.344c-0.062,0.095-0.078,0.18-0.004,0.294c0.138,0.213,0.085,0.49-0.108,0.658
		c-0.063,0.057-0.081,0.111-0.075,0.189c0.04,0.55,0.04,1.1-0.023,1.649c-0.053,0.465-0.146,0.921-0.365,1.344
		c-0.162,0.312-0.373,0.576-0.744,0.65c-0.212,0.042-0.413,0.004-0.608-0.08C354.895,261.97,354.628,261.761,354.391,261.509z"/>
	<path fill-rule="evenodd" clip-rule="evenodd" fill="#2E3192" d="M358.008,257.646c0.76,0.232,1.479,0.454,2.197,0.673
		c0.142,0.043,0.281,0.085,0.421,0.131c0.205,0.067,0.404,0.059,0.611-0.006c0.837-0.262,1.678-0.514,2.516-0.769
		c0.012-0.004,0.025-0.006,0.063-0.014c0.087,0.282,0.176,0.565,0.259,0.849c0.032,0.107,0.048,0.218,0.07,0.33
		c0.05,0.254,0.004,0.488-0.146,0.703c-0.311,0.446-0.733,0.759-1.215,0.991c-1.325,0.638-2.641,0.594-3.939-0.083
		c-0.395-0.208-0.741-0.481-0.992-0.859c-0.146-0.222-0.225-0.46-0.161-0.726C357.79,258.462,357.899,258.063,358.008,257.646z"/>
</g>
<g>
	<path fill-rule="evenodd" clip-rule="evenodd" fill="#2E3192" d="M347.377,448.072c0.247-0.234,0.495-0.45,0.715-0.694
		c0.604-0.663,1.021-1.423,1.171-2.319c0.014-0.082,0.003-0.142-0.05-0.212c-0.218-0.289-0.12-0.669,0.204-0.837
		c0.051-0.024,0.098-0.075,0.127-0.127c0.116-0.197,0.225-0.397,0.341-0.607c-0.214-0.067-0.432-0.136-0.649-0.203
		c-0.338-0.104-0.677-0.205-1.018-0.309c-0.029-0.008-0.057-0.021-0.086-0.028c-0.116-0.036-0.187-0.108-0.186-0.235
		c0.002-0.126,0.079-0.193,0.193-0.229c0.301-0.095,0.603-0.188,0.905-0.279c1.181-0.362,2.363-0.724,3.546-1.083
		c0.397-0.123,0.792-0.249,1.191-0.36c0.085-0.025,0.191-0.021,0.278,0.005c1.406,0.425,2.811,0.857,4.215,1.288
		c0.451,0.141,0.901,0.276,1.351,0.416c0.057,0.018,0.119,0.038,0.162,0.075c0.151,0.13,0.097,0.339-0.104,0.403
		c-0.317,0.101-0.637,0.193-0.956,0.292c-0.942,0.288-1.883,0.579-2.825,0.867c-0.62,0.19-1.24,0.381-1.861,0.564
		c-0.076,0.024-0.168,0.033-0.241,0.012c-0.849-0.256-1.696-0.518-2.542-0.78c-0.007-0.002-0.013-0.009-0.043-0.035
		c0.213-0.098,0.41-0.202,0.615-0.285c0.692-0.282,1.414-0.456,2.151-0.576c0.19-0.03,0.303-0.162,0.279-0.322
		c-0.026-0.183-0.166-0.273-0.374-0.241c-0.945,0.144-1.869,0.369-2.718,0.82c-0.283,0.149-0.535,0.363-0.785,0.567
		c-0.107,0.087-0.171,0.223-0.25,0.343c-0.062,0.095-0.078,0.181-0.004,0.295c0.138,0.212,0.085,0.49-0.108,0.658
		c-0.063,0.058-0.082,0.111-0.076,0.188c0.04,0.55,0.04,1.099-0.022,1.649c-0.054,0.464-0.146,0.922-0.364,1.345
		c-0.162,0.31-0.374,0.575-0.745,0.651c-0.212,0.041-0.414,0.003-0.608-0.082C347.882,448.533,347.616,448.324,347.377,448.072z"/>
	<path fill-rule="evenodd" clip-rule="evenodd" fill="#2E3192" d="M350.994,444.209c0.76,0.232,1.479,0.452,2.197,0.671
		c0.142,0.044,0.282,0.087,0.421,0.133c0.206,0.067,0.404,0.06,0.611-0.006c0.837-0.262,1.678-0.515,2.517-0.77
		c0.012-0.004,0.024-0.007,0.062-0.013c0.087,0.281,0.177,0.563,0.259,0.848c0.032,0.108,0.048,0.217,0.071,0.33
		c0.05,0.253,0.004,0.487-0.146,0.703c-0.312,0.444-0.734,0.759-1.214,0.989c-1.326,0.639-2.644,0.595-3.941-0.083
		c-0.395-0.207-0.741-0.48-0.991-0.859c-0.147-0.221-0.226-0.461-0.162-0.728C350.777,445.025,350.886,444.626,350.994,444.209z"/>
</g>
<g>
	<path fill-rule="evenodd" clip-rule="evenodd" fill="#2E3192" d="M102.719,218.467c0.247-0.236,0.495-0.451,0.715-0.694
		c0.604-0.664,1.021-1.423,1.171-2.318c0.014-0.083,0.003-0.143-0.05-0.212c-0.219-0.289-0.12-0.67,0.204-0.836
		c0.05-0.025,0.097-0.077,0.127-0.128c0.117-0.197,0.225-0.398,0.341-0.607c-0.214-0.067-0.431-0.136-0.649-0.203
		c-0.338-0.104-0.678-0.207-1.017-0.309c-0.029-0.008-0.057-0.02-0.086-0.028c-0.116-0.036-0.187-0.108-0.186-0.235
		c0.002-0.126,0.08-0.194,0.193-0.23c0.302-0.093,0.603-0.187,0.904-0.278c1.182-0.363,2.364-0.723,3.547-1.084
		c0.396-0.122,0.792-0.247,1.19-0.36c0.086-0.024,0.192-0.02,0.278,0.007c1.406,0.425,2.811,0.856,4.215,1.287
		c0.451,0.14,0.901,0.275,1.352,0.416c0.057,0.018,0.118,0.039,0.162,0.077c0.15,0.129,0.097,0.337-0.105,0.403
		c-0.318,0.101-0.637,0.194-0.956,0.292c-0.942,0.288-1.883,0.579-2.826,0.867c-0.62,0.191-1.239,0.38-1.86,0.566
		c-0.076,0.022-0.168,0.031-0.242,0.009c-0.848-0.256-1.695-0.517-2.542-0.779c-0.006-0.001-0.013-0.009-0.042-0.036
		c0.213-0.099,0.41-0.203,0.615-0.285c0.692-0.282,1.414-0.457,2.15-0.576c0.191-0.031,0.303-0.163,0.28-0.323
		c-0.027-0.183-0.166-0.273-0.374-0.241c-0.946,0.144-1.87,0.369-2.719,0.82c-0.283,0.149-0.535,0.363-0.785,0.566
		c-0.106,0.087-0.172,0.225-0.25,0.344c-0.062,0.095-0.079,0.18-0.004,0.294c0.138,0.213,0.085,0.491-0.108,0.659
		c-0.063,0.057-0.082,0.11-0.076,0.188c0.041,0.55,0.041,1.099-0.022,1.648c-0.054,0.465-0.146,0.922-0.365,1.345
		c-0.162,0.311-0.372,0.575-0.745,0.65c-0.211,0.042-0.414,0.004-0.608-0.079C103.225,218.928,102.958,218.719,102.719,218.467z"/>
	<path fill-rule="evenodd" clip-rule="evenodd" fill="#2E3192" d="M106.336,214.603c0.76,0.233,1.479,0.453,2.197,0.673
		c0.142,0.044,0.282,0.086,0.421,0.131c0.205,0.068,0.403,0.06,0.611-0.005c0.837-0.262,1.677-0.514,2.516-0.77
		c0.012-0.003,0.025-0.005,0.063-0.013c0.087,0.282,0.177,0.565,0.259,0.848c0.032,0.107,0.049,0.218,0.071,0.331
		c0.05,0.254,0.003,0.487-0.146,0.702c-0.311,0.446-0.732,0.759-1.214,0.991c-1.326,0.638-2.643,0.595-3.94-0.084
		c-0.395-0.207-0.74-0.481-0.991-0.859c-0.147-0.221-0.226-0.46-0.162-0.726C106.12,215.419,106.229,215.021,106.336,214.603z"/>
</g>
<g>
	<path fill-rule="evenodd" clip-rule="evenodd" fill="#2E3192" d="M78.185,309.688c0.247-0.236,0.496-0.451,0.716-0.694
		c0.603-0.663,1.021-1.424,1.17-2.318c0.014-0.084,0.003-0.144-0.05-0.212c-0.219-0.289-0.12-0.669,0.204-0.838
		c0.05-0.023,0.097-0.076,0.128-0.127c0.116-0.197,0.225-0.397,0.341-0.607c-0.214-0.067-0.431-0.137-0.649-0.202
		c-0.338-0.104-0.678-0.207-1.018-0.31c-0.028-0.009-0.057-0.02-0.085-0.028c-0.117-0.036-0.187-0.107-0.187-0.234
		c0.002-0.126,0.08-0.195,0.192-0.231c0.302-0.092,0.603-0.188,0.904-0.276c1.183-0.363,2.364-0.724,3.547-1.085
		c0.396-0.123,0.792-0.248,1.19-0.361c0.086-0.023,0.192-0.02,0.278,0.007c1.406,0.425,2.811,0.857,4.215,1.286
		c0.451,0.14,0.901,0.275,1.352,0.417c0.057,0.016,0.118,0.039,0.162,0.075c0.151,0.131,0.097,0.338-0.105,0.403
		c-0.318,0.102-0.637,0.192-0.956,0.292c-0.941,0.288-1.883,0.579-2.825,0.867c-0.62,0.191-1.24,0.38-1.861,0.566
		c-0.076,0.022-0.169,0.031-0.242,0.009c-0.849-0.256-1.695-0.517-2.542-0.779c-0.006-0.002-0.012-0.009-0.042-0.035
		c0.213-0.098,0.41-0.202,0.615-0.285c0.693-0.281,1.415-0.456,2.15-0.575c0.192-0.031,0.303-0.163,0.279-0.322
		c-0.027-0.185-0.165-0.274-0.373-0.242c-0.945,0.145-1.869,0.367-2.719,0.821c-0.282,0.148-0.534,0.361-0.784,0.566
		c-0.106,0.087-0.173,0.225-0.25,0.344c-0.062,0.094-0.079,0.179-0.005,0.294c0.138,0.213,0.085,0.491-0.107,0.658
		c-0.064,0.057-0.083,0.108-0.077,0.188c0.041,0.551,0.041,1.1-0.022,1.65c-0.053,0.464-0.146,0.92-0.365,1.343
		c-0.162,0.312-0.372,0.576-0.744,0.65c-0.211,0.042-0.414,0.005-0.608-0.078C78.69,310.15,78.424,309.938,78.185,309.688z"/>
	<path fill-rule="evenodd" clip-rule="evenodd" fill="#2E3192" d="M81.803,305.825c0.76,0.231,1.478,0.451,2.197,0.672
		c0.142,0.042,0.281,0.087,0.421,0.132c0.204,0.066,0.403,0.06,0.611-0.006c0.837-0.261,1.678-0.514,2.517-0.77
		c0.011-0.005,0.025-0.006,0.062-0.015c0.087,0.283,0.177,0.566,0.26,0.851c0.031,0.107,0.049,0.218,0.07,0.33
		c0.05,0.253,0.003,0.486-0.146,0.701c-0.311,0.445-0.733,0.759-1.214,0.99c-1.326,0.637-2.643,0.595-3.94-0.083
		c-0.395-0.207-0.74-0.48-0.991-0.859c-0.147-0.222-0.226-0.459-0.162-0.727C81.585,306.639,81.694,306.242,81.803,305.825z"/>
</g>
<polygon fill-rule="evenodd" clip-rule="evenodd" fill="#ED1C24" points="394.489,448.434 391.532,448.434 391.532,445.478 
	388.964,445.478 388.964,448.434 386.008,448.434 386.008,451.001 388.964,451.001 388.964,453.957 391.532,453.957 
	391.532,451.001 394.489,451.001 "/>
<polygon fill-rule="evenodd" clip-rule="evenodd" fill="#ED1C24" points="456.647,392.188 453.691,392.188 453.691,389.233 
	451.123,389.233 451.123,392.188 448.167,392.188 448.167,394.756 451.123,394.756 451.123,397.714 453.691,397.714 
	453.691,394.756 456.647,394.756 "/>
<text transform="matrix(1 0 0 1 475.7822 264.2407)" fill="#6D6E71" font-family="'OpenSans'" font-size="6.5">THIRUMALA HOSPITAL</text>
<polygon fill-rule="evenodd" clip-rule="evenodd" fill="#ED1C24" points="514.905,269.411 511.948,269.411 511.948,266.456 
	509.38,266.456 509.38,269.411 506.425,269.411 506.425,271.98 509.38,271.98 509.38,274.936 511.948,274.936 511.948,271.98 
	514.905,271.98 "/>
<path fill="#A97C50" d="M209.389,304.676c0.03-0.023,0.077-0.062,0.535-0.771l0.024-0.046v-0.198h-5.193
	c-0.098,0-0.098,0-0.625,0.785l-0.026,0.065v0.198h1.484c0.207,0,0.444,0.043,0.698,0.125c0.243,0.096,0.431,0.216,0.565,0.36
	h-2.096c-0.091,0-0.091,0-0.635,0.79l-0.026,0.038l0.021,0.223h2.98c-0.008,0.039-0.02,0.08-0.036,0.118
	c-0.245,0.656-0.873,0.974-1.916,0.974c-0.225,0-0.424-0.01-0.592-0.035l-0.129,0.01l-0.045,0.112l-0.011,0.754
	c0,0.072,0,0.072,2.992,3.558l0.046,0.053h1.166l0.179-0.02v-0.35l-2.526-3.049c-0.076-0.086-0.132-0.153-0.173-0.207
	c0.386-0.037,0.785-0.153,1.188-0.347c0.289-0.115,0.579-0.355,0.896-0.748c0.193-0.313,0.312-0.584,0.359-0.823h0.8
	c0.093,0,0.093,0,0.62-0.792l0.025-0.039l-0.026-0.22h-1.469c-0.048-0.175-0.115-0.34-0.202-0.485h1.105L209.389,304.676z"/>
<path fill="#A97C50" d="M386.582,239.716c0.03-0.023,0.076-0.062,0.535-0.77l0.024-0.047v-0.199h-5.193
	c-0.098,0-0.098,0-0.625,0.786l-0.026,0.065v0.2h1.484c0.206,0,0.444,0.043,0.698,0.125c0.244,0.095,0.432,0.215,0.565,0.359h-2.096
	c-0.091,0-0.091,0-0.635,0.789l-0.027,0.04l0.021,0.222h2.98c-0.009,0.039-0.021,0.079-0.035,0.118
	c-0.248,0.657-0.874,0.975-1.917,0.975c-0.224,0-0.424-0.011-0.592-0.035l-0.129,0.009l-0.045,0.111l-0.011,0.754
	c0,0.072,0,0.072,2.993,3.558l0.045,0.053h1.166l0.18-0.021v-0.35l-2.527-3.047c-0.075-0.087-0.132-0.154-0.173-0.206
	c0.386-0.038,0.786-0.155,1.189-0.348c0.289-0.116,0.579-0.356,0.895-0.748c0.194-0.313,0.312-0.583,0.359-0.824h0.8
	c0.093,0,0.093,0,0.62-0.792l0.026-0.039l-0.026-0.22h-1.469c-0.047-0.175-0.114-0.338-0.201-0.485h1.105L386.582,239.716z"/>
<g>
	<path fill-rule="evenodd" clip-rule="evenodd" d="M265.328,285.531c-0.259,0.418-0.298,0.832-0.105,1.261
		c0.008,0.02,0.019,0.045,0.013,0.063c-0.122,0.36-0.042,0.724-0.008,1.083c0.05,0.532,0.126,1.063,0.207,1.593
		c0.046,0.306,0.116,0.609,0.283,0.881c0.292,0.477,0.898,0.489,1.209,0.022c0.173-0.261,0.25-0.56,0.29-0.86
		c0.099-0.74,0.181-1.479,0.263-2.22c0.013-0.108,0.005-0.224-0.02-0.331c-0.03-0.133-0.024-0.252,0.029-0.38
		c0.116-0.279,0.103-0.681-0.157-1.109c0.141,0,0.27,0,0.4,0c0.391,0,0.783-0.002,1.175,0c0.642,0.005,1.166,0.525,1.167,1.168
		c0.003,1.188,0.002,2.376,0,3.563c-0.001,0.636-0.526,1.163-1.16,1.164c-1.773,0.005-3.548,0.005-5.322,0
		c-0.615-0.001-1.147-0.532-1.148-1.149c-0.004-1.196-0.004-2.393,0-3.588c0.001-0.63,0.528-1.153,1.153-1.158
		c0.498-0.003,0.996-0.002,1.494-0.003C265.163,285.531,265.237,285.531,265.328,285.531z"/>
	<path fill-rule="evenodd" clip-rule="evenodd" d="M264.215,282.414c1.391,0,2.764,0.001,4.136-0.001
		c0.069,0,0.099,0.021,0.122,0.088c0.415,1.201-0.38,2.604-1.63,2.873c-1.203,0.257-2.324-0.4-2.676-1.576
		C264.027,283.336,264.049,282.874,264.215,282.414z"/>
	<path fill-rule="evenodd" clip-rule="evenodd" d="M266.253,282.125c-0.636,0-1.271-0.004-1.907,0.002
		c-0.254,0.003-0.421-0.104-0.514-0.338c-0.07-0.178-0.149-0.351-0.22-0.529c-0.054-0.135-0.007-0.285,0.123-0.336
		c0.522-0.21,1.045-0.413,1.572-0.606c0.101-0.038,0.219-0.038,0.329-0.04c0.377-0.003,0.756,0.005,1.134-0.002
		c0.274-0.004,0.534,0.049,0.789,0.154c0.379,0.159,0.765,0.305,1.146,0.458c0.217,0.088,0.269,0.217,0.178,0.434
		c-0.072,0.171-0.147,0.342-0.22,0.512c-0.085,0.196-0.233,0.292-0.449,0.292C267.561,282.123,266.907,282.125,266.253,282.125z
		 M266.257,280.413c-0.329,0.202-0.36,0.204-0.53,0.038c-0.07,0.065-0.14,0.132-0.215,0.199c0.096,0.1,0.145,0.221,0.092,0.352
		c-0.131,0.329,0.063,0.611,0.281,0.776c0.333,0.249,0.437,0.251,0.759-0.012c0.23-0.186,0.38-0.414,0.276-0.728
		c-0.049-0.153-0.021-0.279,0.083-0.391c-0.071-0.071-0.14-0.14-0.207-0.208C266.626,280.615,266.601,280.614,266.257,280.413z"/>
	<path fill-rule="evenodd" clip-rule="evenodd" d="M266.039,286.779c-0.403-0.279-0.349-0.703-0.165-0.904
		c0.275-0.302,0.676-0.26,0.894-0.021c0.229,0.252,0.229,0.672-0.146,0.917c0.001,0.008-0.001,0.02,0.003,0.021
		c0.217,0.162,0.243,0.391,0.214,0.634c-0.077,0.647-0.149,1.294-0.239,1.939c-0.03,0.218-0.101,0.43-0.164,0.642
		c-0.015,0.046-0.072,0.081-0.11,0.121c-0.036-0.041-0.094-0.077-0.105-0.124c-0.083-0.334-0.176-0.668-0.224-1.008
		c-0.078-0.544-0.123-1.092-0.184-1.639C265.787,287.108,265.832,286.988,266.039,286.779z"/>
	<path fill-rule="evenodd" clip-rule="evenodd" d="M265.983,281.602c0.08-0.236,0.029-0.409-0.183-0.537
		c0.239-0.004,0.406-0.076,0.45-0.338c0.078,0.23,0.205,0.363,0.479,0.313c-0.095,0.103-0.192,0.166-0.222,0.253
		c-0.029,0.082,0.014,0.188,0.026,0.311C266.351,281.471,266.172,281.405,265.983,281.602z"/>
</g>
<g>
	<path fill-rule="evenodd" clip-rule="evenodd" d="M298.489,134.529c-2.52,0-4.994,0-7.556,0c0-2.111,0-4.194,0-6.349
		c2.486,0,4.984,0,7.556,0C298.489,130.243,298.489,132.33,298.489,134.529z M297.581,132.395h-1.02v-3.28h1.02V132.395z
		 M296.008,132.395h-1.021v-3.28h1.021V132.395z M294.435,132.395h-1.021v-3.28h1.021V132.395z M292.861,132.395h-1.021v-3.28h1.021
		V132.395z"/>
	<path fill-rule="evenodd" clip-rule="evenodd" d="M289.613,124.25c0.262,0.38,0.465,0.538,0.468,0.697
		c0.022,1.893,0.014,3.787,0.014,5.736c-0.706,0-1.333,0-2.027,0c0-1.99,0-3.966,0-5.834c0.38-0.306,0.766-0.531,1.042-0.852
		c0.77-0.897,1.455-1.125,2.558-0.7c0.598,0.229,1.175,0.52,1.753,0.799c0.781,0.378,1.512,0.349,2.215-0.195
		c0.251-0.195,0.525-0.381,0.817-0.5c0.735-0.299,1.451-0.034,1.698,0.592c0.282,0.711-0.067,1.52-0.849,1.77
		c-1.369,0.44-2.715,0.263-4.012-0.313c-0.693-0.308-1.349-0.707-2.058-0.965C290.779,124.32,290.261,124.336,289.613,124.25z"/>
	<path fill-rule="evenodd" clip-rule="evenodd" d="M287.712,131.199c0.92,0,1.782,0,2.697,0c0,1.125,0,2.189,0,3.316
		c-0.908,0-1.769,0-2.697,0C287.712,133.426,287.712,132.359,287.712,131.199z"/>
</g>
<g>
	<path fill-rule="evenodd" clip-rule="evenodd" d="M354.125,85.191c-2.52,0-4.995,0-7.556,0c0-2.111,0-4.194,0-6.35
		c2.486,0,4.984,0,7.556,0C354.125,80.906,354.125,82.992,354.125,85.191z M353.218,83.057h-1.021v-3.28h1.021V83.057z
		 M351.644,83.057h-1.021v-3.28h1.021V83.057z M350.071,83.057h-1.021v-3.28h1.021V83.057z M348.498,83.057h-1.021v-3.28h1.021
		V83.057z"/>
	<path fill-rule="evenodd" clip-rule="evenodd" d="M345.25,74.912c0.262,0.38,0.464,0.538,0.467,0.698
		c0.022,1.893,0.014,3.786,0.014,5.736c-0.706,0-1.334,0-2.028,0c0-1.99,0-3.965,0-5.834c0.381-0.305,0.767-0.53,1.041-0.851
		c0.77-0.898,1.456-1.125,2.558-0.701c0.598,0.23,1.174,0.519,1.753,0.799c0.781,0.379,1.512,0.349,2.215-0.194
		c0.252-0.195,0.525-0.381,0.817-0.5c0.736-0.3,1.45-0.033,1.698,0.592c0.281,0.711-0.067,1.519-0.849,1.771
		c-1.369,0.439-2.716,0.263-4.012-0.313c-0.693-0.309-1.348-0.707-2.058-0.966C346.416,74.983,345.897,74.999,345.25,74.912z"/>
	<path fill-rule="evenodd" clip-rule="evenodd" d="M343.349,81.862c0.92,0,1.781,0,2.696,0c0,1.125,0,2.188,0,3.316
		c-0.907,0-1.767,0-2.696,0C343.349,84.088,343.349,83.022,343.349,81.862z"/>
</g>
<g>
	<path fill-rule="evenodd" clip-rule="evenodd" d="M607.933,282.851c-2.52,0-4.995,0-7.557,0c0-2.111,0-4.194,0-6.351
		c2.486,0,4.984,0,7.557,0C607.933,278.564,607.933,280.65,607.933,282.851z M607.024,280.715h-1.02v-3.279h1.02V280.715z
		 M605.451,280.715h-1.02v-3.279h1.02V280.715z M603.878,280.715h-1.02v-3.279h1.02V280.715z M602.305,280.715h-1.02v-3.279h1.02
		V280.715z"/>
	<path fill-rule="evenodd" clip-rule="evenodd" d="M599.057,272.571c0.262,0.38,0.466,0.539,0.469,0.697
		c0.021,1.893,0.011,3.787,0.011,5.736c-0.703,0-1.331,0-2.025,0c0-1.989,0-3.965,0-5.835c0.382-0.305,0.768-0.528,1.042-0.85
		c0.768-0.898,1.455-1.126,2.558-0.701c0.598,0.23,1.175,0.521,1.753,0.8c0.781,0.378,1.513,0.347,2.216-0.195
		c0.251-0.194,0.524-0.381,0.817-0.5c0.735-0.3,1.449-0.032,1.696,0.592c0.282,0.711-0.065,1.521-0.85,1.77
		c-1.368,0.44-2.715,0.264-4.012-0.312c-0.691-0.31-1.349-0.708-2.056-0.967C600.224,272.643,599.704,272.657,599.057,272.571z"/>
	<path fill-rule="evenodd" clip-rule="evenodd" d="M597.156,279.521c0.921,0,1.78,0,2.696,0c0,1.126,0,2.188,0,3.316
		c-0.908,0-1.768,0-2.696,0C597.156,281.746,597.156,280.681,597.156,279.521z"/>
</g>
<path fill-rule="evenodd" clip-rule="evenodd" d="M661.776,69.394c-2.147,0-4.292-0.003-6.438,0.004
	c-0.242,0-0.37-0.056-0.458-0.305c-0.206-0.605-0.455-1.198-0.693-1.812c-1.53,0-3.019-0.003-4.508,0.002
	c-0.359,0.002-0.585,0.212-0.594,0.515c-0.008,0.311,0.231,0.527,0.607,0.536c0.258,0.006,0.521,0.023,0.772-0.003
	c0.278-0.027,0.407,0.068,0.508,0.336c0.754,2,1.523,3.995,2.299,5.986c0.082,0.208,0.236,0.386,0.372,0.608
	c-0.485,0.869-0.438,1.585,0.186,2.162c0.544,0.501,1.361,0.549,1.977,0.114c0.703-0.496,0.806-1.176,0.335-2.321h1.74
	c-0.505,0.951-0.427,1.695,0.216,2.249c0.541,0.465,1.379,0.49,1.955,0.058c0.69-0.516,0.789-1.232,0.303-2.31
	c0.544-0.038,0.709-0.396,0.771-0.871c0.054-0.404,0.16-0.802,0.238-1.202c0.248-1.236,0.494-2.473,0.748-3.744H661.776z
	 M652.44,69.383c-0.04,0-0.1-0.059-0.117-0.103c-0.119-0.3-0.231-0.605-0.361-0.944c0.481,0,0.924-0.008,1.365,0.009
	c0.074,0.001,0.173,0.096,0.208,0.171c0.119,0.264,0.215,0.539,0.344,0.872C653.378,69.388,652.909,69.391,652.44,69.383z
	 M654.886,76.782c-0.3-0.002-0.528-0.24-0.523-0.541c0.005-0.283,0.229-0.508,0.511-0.513c0.3-0.005,0.539,0.225,0.543,0.521
	C655.42,76.543,655.18,76.783,654.886,76.782z M654.435,73.58c-0.701,0-0.701-1.087,0-1.087h4.543c0.7,0,0.7,1.087,0,1.087H654.435z
	 M659.109,76.781c-0.299-0.003-0.531-0.241-0.526-0.54c0.004-0.28,0.234-0.51,0.512-0.515c0.302-0.005,0.538,0.224,0.543,0.522
	C659.644,76.543,659.403,76.785,659.109,76.781z M659.251,71.717c-1.728,0.01-3.454,0.121-5.181,0.045
	c-0.699-0.03-0.701-1.118,0-1.087c1.727,0.077,3.453-0.035,5.181-0.045C659.951,70.625,659.951,71.713,659.251,71.717z"/>
<polygon fill="#D1D3D4" points="273.104,49.096 230.533,185.805 233.303,190.021 277.141,49.784 "/>
<g>
	<g>
		<path fill="none" stroke="#231F20" stroke-width="0.7695" d="M757.922,430.886c1.688,0.999,2.82,2.838,2.82,4.941
			c0,3.17-2.572,5.74-5.742,5.74s-5.739-2.57-5.739-5.74c0-2.104,1.132-3.943,2.819-4.943c0.371-0.22,0.765-0.396,1.184-0.529
			c0.548-0.175,1.134-0.27,1.736-0.27C756.065,430.085,757.067,430.377,757.922,430.886z"/>
		<g>
			<path fill="none" stroke="#231F20" stroke-width="0.7695" d="M752.08,430.884c0.371-0.22,0.765-0.396,1.184-0.529
				c0.548-0.175,1.134-0.27,1.736-0.27c1.065,0,2.067,0.292,2.922,0.801l-2.979-8.575L752.08,430.884z"/>
			<path fill="#231F20" stroke="#231F20" stroke-width="0.7695" d="M755,430.085c1.065,0,2.067,0.292,2.922,0.801l-2.979-8.575
				v7.778L755,430.085z"/>
		</g>
		<g>
			<path fill="none" stroke="#231F20" stroke-width="0.7695" d="M750.06,438.748c-0.22-0.369-0.397-0.767-0.53-1.184
				c-0.175-0.548-0.269-1.132-0.269-1.737c0-1.065,0.289-2.065,0.799-2.922l-8.574,2.981L750.06,438.748z"/>
			<path fill="#231F20" stroke="#231F20" stroke-width="0.7695" d="M749.261,435.827c0-1.065,0.289-2.065,0.799-2.922l-8.574,2.981
				h7.779L749.261,435.827z"/>
		</g>
		<g>
			<path fill="none" stroke="#231F20" stroke-width="0.7695" d="M757.922,440.771c-0.37,0.219-0.767,0.396-1.182,0.53
				c-0.549,0.174-1.134,0.267-1.74,0.267c-1.065,0-2.063-0.289-2.92-0.797l2.98,8.574L757.922,440.771z"/>
			<path fill="#231F20" stroke="#231F20" stroke-width="0.7695" d="M755,441.567c-1.065,0-2.063-0.289-2.92-0.797l2.98,8.574v-7.78
				L755,441.567z"/>
		</g>
		<g>
			<path fill="none" stroke="#231F20" stroke-width="0.7695" d="M759.944,432.905c0.218,0.371,0.396,0.77,0.531,1.185
				c0.172,0.547,0.267,1.132,0.267,1.737c0,1.066-0.291,2.064-0.799,2.922l8.574-2.981L759.944,432.905z"/>
			<path fill="#231F20" stroke="#231F20" stroke-width="0.7695" d="M760.742,435.827c0,1.066-0.291,2.064-0.799,2.922l8.574-2.981
				h-7.78L760.742,435.827z"/>
		</g>
		<g>
			<path fill="#231F20" d="M757.099,416.227c-0.378,0.046-0.57,0.074-0.57,0.854v3.503h-0.102l-2.638-3.65h-0.012v2.598
				c0,0.686,0.126,0.832,0.564,0.853v0.127h-1.41v-0.127c0.458-0.033,0.583-0.133,0.583-0.853v-2.938
				c-0.246-0.332-0.343-0.366-0.583-0.366v-0.125h1.028l2.293,3.201h0.012v-2.223c0-0.766-0.168-0.819-0.574-0.854v-0.125h1.408
				V416.227z"/>
		</g>
	</g>
</g>
<g>
	<text transform="matrix(1 0 0 1 682.4277 470.0703)" font-family="'OpenSans-Light'" font-size="8">Location map (not to scale)</text>
</g>
</svg>
