<?xml version="1.0" encoding="utf-8"?>
<!-- Generator: Adobe Illustrator 16.0.0, SVG Export Plug-In . SVG Version: 6.00 Build 0)  -->
<!DOCTYPE svg PUBLIC "-//W3C//DTD SVG 1.1//EN" "http://www.w3.org/Graphics/SVG/1.1/DTD/svg11.dtd">
<svg version="1.1" id="Layer_1" xmlns="http://www.w3.org/2000/svg" xmlns:xlink="http://www.w3.org/1999/xlink" x="0px" y="0px"
	 width="228px" height="74.5px" viewBox="0 5.5 228 74.5" enable-background="new 0 5.5 228 74.5" xml:space="preserve">
<g>
	<g>
		<path fill="#2E3191" d="M159.242,28.805l0.029,1.424c0,0.781-0.668,1.398-1.424,1.398h-12.733v4.243h10.954
			c0.791,0,1.402,0.615,1.402,1.37v1.509c0,0.755-0.611,1.371-1.402,1.371h-10.954v4.243h12.688c0.757,0,1.366,0.609,1.366,1.363
			v1.51c0,0.66-0.598,1.322-1.378,1.322h-16.947c-0.782,0-1.389-0.636-1.389-1.42V28.775c0-0.758,0.637-1.359,1.389-1.359h17.011
			C158.604,27.416,159.242,28.018,159.242,28.805"/>
		<path fill="#2E3191" d="M165.016,48.553c-0.759,0-1.391-0.638-1.391-1.392v-18.35c0-0.754,0.602-1.389,1.359-1.389h3.352
			c0,0,2.502-0.138,3.637,1.512l7.877,12.214V28.778c0-0.752,0.633-1.356,1.389-1.356h2.882c0.787,0,1.389,0.604,1.389,1.389v18.371
			c0,0.756-0.584,1.371-1.368,1.371h-3.349c0,0-2.644,0.187-3.726-1.511l-7.778-12.12v12.26c0,0.756-0.616,1.371-1.372,1.371
			H165.016z"/>
		<path fill="#2E3191" d="M209.02,27.403c0.785,0,1.373,0.588,1.373,1.374v1.39c0,0.785-0.606,1.391-1.395,1.391h-6.535v15.606
			c0,0.757-0.609,1.365-1.367,1.365h-2.896c-0.758,0-1.393-0.6-1.393-1.355V31.558h-6.535c-0.782,0-1.392-0.605-1.392-1.391v-1.39
			c0-0.786,0.632-1.374,1.419-1.374H209.02z"/>
		<path fill="#2E3191" d="M62.297,44.871c-3.539,0-6.406-1.684-6.406-6.897s2.867-6.901,6.406-6.901
			c3.537,0,6.403,1.616,6.403,6.901C68.7,43.259,65.834,44.871,62.297,44.871 M62.297,27.032c-9.03,0-11.79,4.896-11.79,10.941
			c0,6.041,2.884,10.939,11.79,10.939c8.901,0,11.785-4.898,11.785-10.939C74.082,31.929,71.324,27.032,62.297,27.032"/>
		<path fill="#2E3191" d="M31.879,31.61v4.948h7.736c0.8,0,2.451-0.427,2.451-2.36c0-1.927-1.134-2.588-2.451-2.588H31.879z
			 M31.879,40.795v6.471c0,0.566-0.532,1.271-1.319,1.271h-3.015c-0.759,0-1.324-0.661-1.324-1.321v-18.42
			c0-0.781,0.604-1.385,1.359-1.385h11.469c5.047,0,8.68,2.217,8.68,6.692c0,3.256-1.748,4.956-4.294,5.993
			c0,0,0.572,0.875,1.777,2.776l2.681,4.25c0.484,0.784,0.276,1.389-0.509,1.389H43.67c-0.753,0-1.777-0.604-2.261-1.389
			l-2.501-3.918c-0.75-1.175-1.839-2.409-3.738-2.409H31.879z"/>
		<path fill="#2E3191" d="M103.349,28.802c0-0.784,0.636-1.389,1.394-1.389h2.849c0.786,0,1.417,0.604,1.417,1.389v18.369
			c0,0.753-0.631,1.39-1.417,1.39h-2.849c-0.757,0-1.394-0.605-1.394-1.361V28.802z"/>
		<path fill="#2E3191" d="M119.352,31.64v12.758h3.818c3.947,0,6.68-1.869,6.68-6.397c0-4.521-2.967-6.36-6.68-6.36L119.352,31.64
			L119.352,31.64z M123.323,27.449c8.595,0,12.208,3.348,12.208,10.551c0,7.21-3.613,10.561-12.208,10.561h-8.233
			c-0.754,0-1.391-0.604-1.391-1.359V28.864c0-0.784,0.604-1.415,1.391-1.415H123.323z"/>
		<path fill="#2E3191" d="M98.317,27.413h-3.23c-0.188,0-0.962,0-1.645,1.296l-3.779,8.128l-2.035,4.394l-0.003-0.004l-2.916,6.285
			c0.412,0.641,0.993,1.049,1.856,1.049h2.119c1.055,0,1.692-0.605,2.113-1.512l8.388-18.125
			C99.185,28.924,99.985,27.413,98.317,27.413"/>
		<path fill="#2E3191" d="M85.92,37.522l-3.952-8.599c-0.706-1.511-1.604-1.511-1.805-1.511h-3.229
			c-1.613,0-0.861,1.511-0.861,1.511l6.903,14.933L85.92,37.522z"/>
		<path fill="#2E3191" d="M6.792,31.611v6.599h6.594c1.935,0,3.585-0.843,3.585-3.108c0-2.83-1.742-3.49-3.585-3.49L6.792,31.611
			L6.792,31.611z M13.754,27.416c5.617,0,8.906,1.961,8.906,7.638c0,5.706-3.474,7.354-8.706,7.354H6.792v4.783
			c0,0.758-0.618,1.347-1.369,1.347H2.499c-0.754,0-1.366-0.616-1.366-1.372V28.797c0-0.787,0.576-1.381,1.332-1.381H13.754z"/>
	</g>
	<g>
		<path fill="#2E3191" d="M222.82,27.272c0,2.372-1.86,4.235-4.284,4.235c-2.4,0-4.313-1.863-4.313-4.235
			c0-2.322,1.912-4.186,4.313-4.186C220.96,23.087,222.82,24.95,222.82,27.272z M215.086,27.272c0,1.981,1.466,3.559,3.479,3.559
			c1.955,0,3.396-1.577,3.396-3.533c0-1.981-1.438-3.583-3.423-3.583C216.552,23.715,215.086,25.316,215.086,27.272z
			 M217.871,29.466H216.9v-4.183c0.385-0.078,0.92-0.129,1.607-0.129c0.793,0,1.148,0.129,1.454,0.305
			c0.231,0.18,0.407,0.513,0.407,0.919c0,0.46-0.355,0.816-0.867,0.969v0.052c0.409,0.152,0.641,0.461,0.77,1.02
			c0.127,0.638,0.203,0.895,0.305,1.048h-1.047c-0.129-0.153-0.202-0.535-0.331-1.02c-0.076-0.462-0.33-0.664-0.868-0.664h-0.459
			V29.466z M217.898,27.092h0.457c0.535,0,0.972-0.178,0.972-0.612c0-0.379-0.283-0.637-0.894-0.637
			c-0.258,0-0.435,0.026-0.535,0.052V27.092L217.898,27.092z"/>
	</g>
</g>
</svg>
