<?xml version="1.0" encoding="utf-8"?>
<!-- Generator: Adobe Illustrator 16.0.0, SVG Export Plug-In . SVG Version: 6.00 Build 0)  -->
<!DOCTYPE svg PUBLIC "-//W3C//DTD SVG 1.1//EN" "http://www.w3.org/Graphics/SVG/1.1/DTD/svg11.dtd">
<svg version="1.1" id="Layer_1" xmlns="http://www.w3.org/2000/svg" xmlns:xlink="http://www.w3.org/1999/xlink" x="0px" y="0px"
	 width="228px" height="76px" viewBox="0 0 228 76" enable-background="new 0 0 228 76" xml:space="preserve">
<g>
	<polyline fill="#2E3191" points="78.901,15.241 81.596,15.241 87.569,38.289 87.642,38.289 94.061,15.241 97.193,15.241 
		103.648,38.289 103.722,38.289 109.731,15.241 112.241,15.241 104.975,41.573 102.319,41.573 95.646,18.004 95.57,18.004 
		88.936,41.573 86.206,41.573 78.901,15.241 	"/>
</g>
<g>
	<path fill="#2E3191" d="M124.851,14.687c8.263,0,12.392,6.526,12.392,13.716c0,7.194-4.129,13.72-12.392,13.72
		c-8.296,0-12.425-6.526-12.425-13.72C112.425,21.213,116.555,14.687,124.851,14.687 M124.851,39.98
		c6.937,0,9.884-5.822,9.884-11.578c0-5.75-2.947-11.579-9.884-11.579c-6.968,0-9.919,5.829-9.919,11.579
		C114.932,34.159,117.883,39.98,124.851,39.98z"/>
</g>
<g>
	<path fill="#2E3191" d="M139.932,15.242h12.058c4.352,0,8.001,2.099,8.001,6.857c0,3.319-1.732,6.048-5.125,6.712v0.075
		c3.43,0.441,4.424,2.8,4.609,5.938c0.109,1.803,0.109,5.417,1.216,6.75h-2.764c-0.627-1.037-0.627-2.989-0.699-4.095
		c-0.224-3.69-0.518-7.781-5.273-7.599h-9.517v11.694h-2.506V15.242 M142.438,27.741h9.366c3.062,0,5.681-1.919,5.681-5.126
		s-1.919-5.236-5.681-5.236h-9.366V27.741z"/>
</g>
<g>
	<polyline fill="#2E3191" points="160.729,15.242 181.601,15.242 181.601,17.379 172.419,17.379 172.419,41.573 169.912,41.573 
		169.912,17.379 160.729,17.379 160.729,15.242 	"/>
</g>
<g>
	<polyline fill="#2E3191" points="182.892,15.242 185.4,15.242 185.4,26.672 201.037,26.672 201.037,15.242 203.541,15.242 
		203.541,41.573 201.037,41.573 201.037,28.812 185.4,28.812 185.4,41.573 182.892,41.573 182.892,15.242 	"/>
</g>
<g>
	<polyline fill="#2E3191" points="6.6,15.241 12.389,15.241 12.389,26.155 22.679,15.241 29.905,15.241 19.617,25.64 30.903,41.573 
		23.637,41.573 15.708,29.731 12.389,33.087 12.389,41.573 6.6,41.573 6.6,15.241 	"/>
</g>
<g>
	<polyline fill="#2E3191" points="32.043,15.241 51.738,15.241 51.738,20.108 37.833,20.108 37.833,25.75 50.592,25.75 
		50.592,30.249 37.833,30.249 37.833,36.703 52.033,36.703 52.033,41.573 32.043,41.573 32.043,15.241 	"/>
</g>
<g>
	<polyline fill="#2E3191" points="54.762,15.241 60.514,15.241 71.504,32.904 71.576,32.904 71.576,15.241 76.997,15.241 
		76.997,41.573 71.21,41.573 60.257,23.941 60.182,23.941 60.182,41.573 54.762,41.573 54.762,15.241 	"/>
</g>
<g>
	<path fill="#4D4D4D" d="M7.368,54.045h3.275c0.439,0,0.864,0.038,1.271,0.112c0.409,0.076,0.769,0.211,1.079,0.403
		c0.311,0.192,0.558,0.453,0.743,0.783c0.184,0.327,0.276,0.746,0.276,1.251c0,0.888-0.279,1.559-0.836,2.018
		c-0.557,0.458-1.374,0.686-2.453,0.686H8.526V62.8H7.368V54.045z M8.526,58.251h2.23c0.741,0,1.271-0.137,1.587-0.409
		c0.317-0.271,0.477-0.681,0.477-1.221c0-0.322-0.058-0.588-0.174-0.786c-0.115-0.201-0.269-0.354-0.459-0.467
		c-0.19-0.108-0.413-0.185-0.668-0.228c-0.256-0.037-0.522-0.059-0.803-0.059H8.526V58.251z"/>
	<path fill="#4D4D4D" d="M22.413,62.8h-1.165v-4.127h-4.554V62.8h-1.158v-8.755h1.158v3.582h4.554v-3.582h1.165V62.8z"/>
	<path fill="#4D4D4D" d="M31.567,62.8h-1.313l-1.012-2.664h-3.668L24.603,62.8h-1.217l3.355-8.755h1.258L31.567,62.8z
		 M28.904,59.213l-1.544-4.056l-1.471,4.056H28.904z"/>
	<path fill="#4D4D4D" d="M35.841,62.95c-0.613,0-1.151-0.071-1.614-0.214c-0.464-0.146-0.85-0.347-1.156-0.611
		c-0.306-0.26-0.539-0.574-0.698-0.94c-0.16-0.368-0.246-0.765-0.259-1.201h1.11c0.031,0.334,0.12,0.619,0.264,0.863
		c0.144,0.241,0.332,0.441,0.563,0.6c0.23,0.162,0.494,0.279,0.789,0.355c0.295,0.074,0.61,0.111,0.948,0.111
		c0.33,0,0.625-0.035,0.89-0.106c0.264-0.072,0.491-0.172,0.682-0.299c0.19-0.13,0.34-0.286,0.447-0.472
		c0.106-0.182,0.159-0.388,0.159-0.621c0-0.238-0.048-0.441-0.142-0.609c-0.096-0.167-0.252-0.31-0.47-0.435
		c-0.218-0.123-0.499-0.238-0.846-0.335c-0.346-0.102-0.771-0.205-1.278-0.31c-0.487-0.109-0.911-0.236-1.268-0.381
		c-0.357-0.147-0.65-0.313-0.879-0.504c-0.229-0.188-0.397-0.407-0.505-0.658c-0.109-0.25-0.164-0.542-0.164-0.87
		c0-0.349,0.076-0.672,0.227-0.968c0.151-0.294,0.362-0.552,0.633-0.77c0.27-0.215,0.598-0.385,0.981-0.503
		c0.385-0.124,0.81-0.182,1.276-0.182c0.488,0,0.936,0.058,1.341,0.182c0.406,0.118,0.755,0.29,1.048,0.518
		c0.293,0.229,0.523,0.503,0.69,0.829c0.167,0.325,0.256,0.695,0.27,1.109h-1.125c-0.115-1.057-0.839-1.587-2.17-1.587
		c-0.652,0-1.154,0.12-1.505,0.361c-0.35,0.237-0.525,0.566-0.525,0.979c0,0.18,0.034,0.338,0.099,0.468
		c0.067,0.129,0.177,0.247,0.331,0.347c0.152,0.099,0.357,0.19,0.616,0.272c0.257,0.083,0.579,0.165,0.964,0.243
		c0.396,0.082,0.746,0.17,1.053,0.257c0.306,0.086,0.574,0.172,0.806,0.256c0.221,0.084,0.433,0.19,0.635,0.316
		c0.202,0.125,0.379,0.278,0.536,0.458c0.155,0.18,0.278,0.39,0.37,0.622c0.09,0.236,0.136,0.499,0.136,0.795
		c0,0.386-0.082,0.739-0.246,1.063c-0.164,0.325-0.389,0.604-0.676,0.833c-0.286,0.237-0.628,0.417-1.028,0.547
		C36.746,62.887,36.311,62.95,35.841,62.95z"/>
	<path fill="#4D4D4D" d="M47.245,62.8h-6.538v-8.755h6.336v1.037h-5.179v2.664h4.847v1.045h-4.847v2.969h5.38V62.8z"/>
	<path fill="#4D4D4D" d="M54.762,62.8H53.83v-7.245l-0.739,0.886l-0.579-0.632l1.318-1.664h0.932V62.8z"/>
</g>
</svg>
